<svg width="125" height="125" viewBox="0 0 125 125" fill="none" xmlns="http://www.w3.org/2000/svg">
<path d="M62.2861 124.449C96.6183 124.449 124.45 96.6172 124.45 62.285C124.45 27.9527 96.6183 0.120972 62.2861 0.120972C27.9538 0.120972 0.12207 27.9527 0.12207 62.285C0.12207 96.6172 27.9538 124.449 62.2861 124.449Z" fill="#B6BA2C"/>
<mask id="mask0_12_705" style="mask-type:luminance" maskUnits="userSpaceOnUse" x="0" y="0" width="125" height="125">
<path d="M62.2861 124.449C96.6183 124.449 124.45 96.6172 124.45 62.285C124.45 27.9527 96.6183 0.120972 62.2861 0.120972C27.9538 0.120972 0.12207 27.9527 0.12207 62.285C0.12207 96.6172 27.9538 124.449 62.2861 124.449Z" fill="white"/>
</mask>
<g mask="url(#mask0_12_705)">
<path d="M39.2411 12.469C39.2411 12.469 33.2081 17.388 29.0481 31.003C24.8881 44.618 28.9221 49.661 29.3001 54.199C29.6781 58.737 25.3921 72.73 35.9821 83.068C35.9821 83.068 38.1251 84.833 39.5121 84.203C40.8991 83.573 40.8991 82.06 42.4111 82.06C43.9241 82.06 45.1841 83.321 46.8231 83.069C48.4621 82.817 48.4621 81.682 51.7401 81.43C55.0181 81.178 63.4641 80.169 66.2371 81.808C69.0101 83.447 72.5401 81.682 74.1791 81.808C75.8181 81.934 75.4401 83.321 77.0791 83.195C78.7181 83.069 79.8521 80.926 81.1131 80.926C82.3741 80.926 83.2561 81.304 84.2651 82.691C85.2741 84.078 88.8031 82.943 92.0811 75.884C95.3591 68.824 91.7031 60.378 92.8371 54.957C93.9721 49.536 95.4841 46.637 95.6101 40.586C95.7361 34.535 92.1201 21.239 92.1201 21.239L39.2411 12.469Z" fill="#1F0E07"/>
<path d="M113.451 110.427C113.451 110.427 89.5751 130.427 62.0431 130.427C34.5111 130.427 11.0221 110.427 11.0221 110.427C9.88909 102.865 15.5551 91.893 18.9651 89.998C20.4111 89.197 25.8921 88.3959 31.8521 87.6039C35.0171 87.1839 38.3101 86.7639 41.2021 86.3629C45.6771 85.7279 49.1941 85.1119 49.7901 84.5169C51.4901 82.8169 50.9231 70.3309 50.9231 70.3309H73.5501C73.5501 70.3309 72.9831 82.8169 74.6931 84.5169C75.3961 85.2199 80.2231 85.9629 85.8801 86.7149C89.3971 87.1839 93.2471 87.6629 96.6071 88.1509C100.886 88.7669 104.394 89.3819 105.508 89.9969C108.917 91.8929 114.584 102.865 113.451 110.427Z" fill="#8A4A29"/>
<path d="M50.9191 70.3359C50.9191 70.3359 51.1181 74.709 50.9271 78.631C53.7061 81.254 57.8381 84.2029 62.0131 83.6989C65.6361 83.2619 70.0321 80.9049 73.5471 78.6389C73.3561 74.7149 73.5551 70.3359 73.5551 70.3359H50.9191Z" fill="#592B14"/>
<path d="M38.6811 53.7949C38.6811 53.7949 34.9381 50.6569 32.4211 53.5199C29.9041 56.3819 36.0051 63.3859 40.6991 64.5859L38.6811 53.7949Z" fill="#8A4A29"/>
<path d="M39.2241 58.9039C39.1431 58.9039 39.0631 58.8629 39.0171 58.7879C36.5241 54.7779 33.5011 54.6919 33.4721 54.6919C33.3361 54.6899 33.2291 54.5789 33.2301 54.4439C33.2321 54.3099 33.3411 54.2029 33.4741 54.2029H33.4771C33.6121 54.2049 36.7981 54.2959 39.4311 58.5299C39.5031 58.6439 39.4671 58.7949 39.3531 58.8659C39.3131 58.8919 39.2681 58.9039 39.2241 58.9039Z" fill="#592B14"/>
<path d="M34.0382 57.3169C33.9532 57.3169 33.8702 57.2719 33.8252 57.1919C33.7592 57.0739 33.8012 56.9249 33.9192 56.8589C33.9912 56.8189 35.6882 55.8729 36.6542 55.6979C36.7922 55.6759 36.9142 55.7619 36.9382 55.8949C36.9622 56.0279 36.8742 56.1549 36.7412 56.1789C35.8542 56.3389 34.1732 57.2759 34.1562 57.2859C34.1192 57.3059 34.0792 57.3169 34.0382 57.3169Z" fill="#592B14"/>
<path d="M36.3591 37.2439C36.3591 37.2439 38.4391 59.368 41.2761 65.798C44.1121 72.227 56.7821 80.9259 60.9421 80.7369C65.1021 80.5479 78.5281 72.984 81.9321 68.446C85.3361 63.908 88.9291 48.023 88.3611 38.758C87.7941 29.492 75.8811 15.6879 66.6151 15.1209C57.3491 14.5539 49.2181 15.8769 45.2471 19.4699C41.2761 23.0609 36.9261 31.004 36.3591 37.2439Z" fill="#8A4A29"/>
<path d="M86.4821 53.916C86.4821 53.916 90.0751 50.607 92.7221 53.349C95.3691 56.091 89.6021 63.371 84.9691 64.789L86.4821 53.916Z" fill="#8A4A29"/>
<path d="M86.1671 59.045C86.1261 59.045 86.0861 59.035 86.0481 59.014C85.9311 58.948 85.8891 58.799 85.9551 58.681C88.3881 54.328 91.5661 54.089 91.7011 54.081C91.8341 54.066 91.9511 54.175 91.9591 54.309C91.9681 54.444 91.8661 54.56 91.7311 54.568C91.7001 54.57 88.6761 54.814 86.3811 58.919C86.3361 59 86.2521 59.045 86.1671 59.045Z" fill="#592B14"/>
<path d="M91.2731 57.2169C91.2361 57.2169 91.1991 57.2089 91.1641 57.1909C91.1461 57.1819 89.4241 56.3259 88.5301 56.2059C88.3961 56.1879 88.3031 56.0649 88.3201 55.9319C88.3371 55.7989 88.4521 55.6979 88.5951 55.7229C89.5701 55.8529 91.3091 56.7179 91.3821 56.7549C91.5031 56.8149 91.5521 56.9619 91.4921 57.0829C91.4491 57.1669 91.3631 57.2169 91.2731 57.2169Z" fill="#592B14"/>
<path d="M34.5941 46.257C34.5941 46.257 36.1071 65.797 41.0231 70.083C41.0231 70.083 42.9711 70.934 42.5361 70.209C42.1581 69.579 39.2582 58.107 38.6282 52.938C37.9982 47.769 39.5102 41.466 41.1492 37.18C42.7882 32.894 46.6962 27.095 46.6962 27.095C46.6962 27.095 48.9652 34.785 57.9162 37.684C66.8672 40.583 70.0181 40.457 70.1441 39.701C70.2701 38.945 69.8921 38.819 68.6311 37.684C67.3701 36.549 64.4711 32.137 64.4711 32.137C64.4711 32.137 75.5651 32.137 80.2291 40.079C84.8931 48.021 84.3891 62.014 81.9311 68.444C81.9311 68.444 81.2381 69.831 82.2461 70.209C83.2541 70.587 87.2891 62.645 89.4321 56.972C91.5751 51.299 93.5922 37.81 93.2142 28.229C92.8362 18.648 88.2972 7.55395 71.1532 3.64595C54.0082 -0.262047 51.1091 7.42797 51.1091 7.42797C51.1091 7.42797 46.5711 6.04095 39.8891 11.84C31.3381 19.263 34.5941 46.257 34.5941 46.257Z" fill="#1F0E07"/>
<path d="M60.6082 60.653L63.1922 60.842C63.1922 60.842 62.1842 61.409 61.6792 61.378C61.1752 61.347 60.6082 60.653 60.6082 60.653Z" fill="#592B14"/>
<path d="M71.6151 48.7829C71.6151 49.8469 71.2231 50.7089 70.7401 50.7089C70.2571 50.7089 69.8651 49.8459 69.8651 48.7829C69.8651 47.7189 70.2571 46.8569 70.7401 46.8569C71.2241 46.8569 71.6151 47.7199 71.6151 48.7829Z" fill="#1F0E07"/>
<path opacity="0.2" d="M82.4801 58.7309C82.4801 61.0619 79.6361 62.9519 76.1291 62.9519C72.6211 62.9519 69.7781 61.0619 69.7781 58.7309C69.7781 56.3999 72.6221 54.5099 76.1291 54.5099C79.6371 54.5089 82.4801 56.3989 82.4801 58.7309Z" fill="#8A4A29"/>
<path opacity="0.2" d="M54.4011 58.7309C54.4011 61.0619 51.5571 62.9519 48.0501 62.9519C44.5421 62.9519 41.6991 61.0619 41.6991 58.7309C41.6991 56.3999 44.5431 54.5099 48.0501 54.5099C51.5571 54.5089 54.4011 56.3989 54.4011 58.7309Z" fill="#8A4A29"/>
<path d="M61.9121 69.7299C59.0981 69.7299 57.2891 67.8079 57.2631 67.7789C57.1011 67.6019 57.1131 67.3279 57.2901 67.1659C57.4671 67.0019 57.7431 67.0139 57.9051 67.1909C58.0461 67.3439 61.4521 70.9189 66.2311 67.1439C66.4201 66.9949 66.6941 67.0279 66.8431 67.2159C66.9921 67.4049 66.9601 67.6789 66.7711 67.8279C64.9671 69.2529 63.3151 69.7299 61.9121 69.7299Z" fill="#592B14"/>
<path d="M69.2441 46.6849C69.1721 46.6849 69.1011 46.6529 69.0531 46.5929C68.9691 46.4879 68.9861 46.3339 69.0911 46.2499C69.1121 46.2349 71.0181 44.7479 72.9271 46.0709L73.2221 45.8389C73.3281 45.7559 73.4821 45.7739 73.5651 45.8799C73.6491 45.9859 73.6301 46.1399 73.5241 46.2229L73.0831 46.5699C72.9961 46.6389 72.8711 46.6399 72.7821 46.5709C71.1321 45.2919 69.4661 46.5769 69.3961 46.6319C69.3511 46.6679 69.2971 46.6849 69.2441 46.6849Z" fill="#1F0E07"/>
<path d="M67.6101 41.3639C68.3601 40.9499 69.1081 40.6619 69.8971 40.4289C70.6821 40.2019 71.4921 40.0599 72.3091 40.0099C73.1251 39.9509 73.9511 40.0179 74.7511 40.1879C75.5601 40.3339 76.3171 40.6699 77.0451 41.0279C77.1641 41.0869 77.2131 41.2309 77.1541 41.3499C77.0971 41.4659 76.9591 41.5149 76.8411 41.4639L76.8211 41.4549C76.1201 41.1429 75.4031 40.8519 74.6421 40.7449C73.8901 40.6139 73.1191 40.5779 72.3571 40.6609C71.5951 40.7339 70.8411 40.8949 70.1131 41.1339C69.3921 41.3729 68.6651 41.6899 68.0401 42.0649L68.0191 42.0779C67.8241 42.1949 67.5721 42.1319 67.4551 41.9369C67.3381 41.7419 67.4011 41.4899 67.5961 41.3729C67.6011 41.3689 67.6061 41.3659 67.6101 41.3639Z" fill="#1F0E07"/>
<path d="M52.7211 48.7829C52.7211 49.8469 53.1131 50.7089 53.5961 50.7089C54.0791 50.7089 54.4711 49.8459 54.4711 48.7829C54.4711 47.7189 54.0791 46.8569 53.5961 46.8569C53.1131 46.8569 52.7211 47.7199 52.7211 48.7829Z" fill="#1F0E07"/>
<path d="M55.0931 46.6849C55.0401 46.6849 54.9861 46.667 54.9411 46.632C54.8701 46.576 53.2051 45.29 51.5561 46.57C51.4671 46.639 51.3421 46.638 51.2551 46.57L50.8131 46.223C50.7071 46.139 50.6881 45.986 50.7721 45.88C50.8541 45.774 51.0081 45.7549 51.1141 45.8379L51.4101 46.07C53.3161 44.747 55.2241 46.234 55.2451 46.249C55.3501 46.333 55.3671 46.486 55.2831 46.592C55.2361 46.653 55.1641 46.6849 55.0931 46.6849Z" fill="#1F0E07"/>
<path d="M56.2951 42.0629C55.6711 41.6879 54.9441 41.3709 54.2221 41.1319C53.4931 40.8929 52.7391 40.7329 51.9781 40.6589C51.2161 40.5759 50.4461 40.6119 49.6931 40.7429C48.9321 40.8499 48.2151 41.1409 47.5141 41.4529L47.4941 41.4619C47.3731 41.5159 47.2311 41.4609 47.1771 41.3399C47.1241 41.2219 47.1751 41.0839 47.2901 41.0269C48.0191 40.6679 48.7751 40.3319 49.5841 40.1869C50.3841 40.0179 51.2101 39.9499 52.0261 40.0089C52.8431 40.0579 53.6531 40.2009 54.4381 40.4279C55.2271 40.6619 55.9751 40.9489 56.7251 41.3629C56.9241 41.4729 56.9961 41.7229 56.8861 41.9219C56.7761 42.1209 56.5261 42.1929 56.3281 42.0829C56.3241 42.0809 56.3211 42.0789 56.3171 42.0759L56.2951 42.0629Z" fill="#1F0E07"/>
<path d="M62.0431 130.427C75.4101 130.427 87.9061 125.712 97.2351 120.861C96.9581 108.133 96.6271 89.996 96.6071 88.152C93.2461 87.664 89.3971 87.185 85.8801 86.716C85.2451 89.774 83.3791 105.758 83.3791 105.758C63.7121 110.047 43.2931 105.26 43.2931 105.26C43.2931 105.26 41.5541 89.765 41.2021 86.365C38.3101 86.766 35.0181 87.186 31.8521 87.606C31.2671 89.729 30.4101 109.463 29.8241 122.277C38.6981 126.589 49.9831 130.427 62.0431 130.427Z" fill="#D4671A"/>
</g>
</svg>
