<svg width="125" height="125" viewBox="0 0 125 125" fill="none" xmlns="http://www.w3.org/2000/svg">
<path d="M62.2861 124.57C96.6183 124.57 124.45 96.7383 124.45 62.4061C124.45 28.0738 96.6183 0.242065 62.2861 0.242065C27.9538 0.242065 0.12207 28.0738 0.12207 62.4061C0.12207 96.7383 27.9538 124.57 62.2861 124.57Z" fill="#E69325"/>
<mask id="mask0_12_604" style="mask-type:luminance" maskUnits="userSpaceOnUse" x="0" y="0" width="125" height="125">
<path d="M62.2861 124.57C96.6183 124.57 124.45 96.7383 124.45 62.4061C124.45 28.0738 96.6183 0.242065 62.2861 0.242065C27.9538 0.242065 0.12207 28.0738 0.12207 62.4061C0.12207 96.7383 27.9538 124.57 62.2861 124.57Z" fill="white"/>
</mask>
<g mask="url(#mask0_12_604)">
<path d="M72.2021 70.848C72.2021 70.848 73.8411 79.042 75.2281 82.446C75.2281 82.446 92.1212 89.632 94.3902 89.632C96.6592 89.632 112.795 92.658 115.191 95.053C117.587 97.448 118.595 110.055 118.595 110.055C118.595 110.055 95.7692 130.055 60.4172 130.055C25.0652 130.055 2.23816 110.055 2.23816 110.055C2.23816 110.055 3.24615 97.449 5.64215 95.053C8.03715 92.658 24.1732 89.632 26.4432 89.632C28.7122 89.632 45.6052 82.446 45.6052 82.446C46.9922 79.042 48.6312 70.848 48.6312 70.848H72.2021Z" fill="#F3D4A8"/>
<path d="M47.4142 76.293C51.1532 78.965 57.2912 83.137 59.3432 83.265C61.3022 83.387 68.5272 79.153 73.3812 76.15C72.7012 73.343 72.2012 70.847 72.2012 70.847H48.6272C48.6272 70.847 48.1122 73.428 47.4142 76.293Z" fill="#E2B670"/>
<path d="M118.594 110.054C118.594 110.054 117.585 97.448 115.19 95.052C112.795 92.656 96.6591 89.631 94.3891 89.631C94.2981 89.631 94.1771 89.616 94.0411 89.594C94.0041 89.588 93.9651 89.581 93.9251 89.573C93.8021 89.55 93.6651 89.52 93.5141 89.483C93.4831 89.475 93.4571 89.47 93.4251 89.462C93.2401 89.415 93.0361 89.358 92.8161 89.293C92.7591 89.276 92.6991 89.258 92.6401 89.24C92.4591 89.185 92.2681 89.126 92.0681 89.061C92.0031 89.04 91.9401 89.02 91.8731 88.998C91.6171 88.914 91.3481 88.824 91.0671 88.727C91.0111 88.708 90.9511 88.686 90.8931 88.666C90.6531 88.583 90.4051 88.495 90.1501 88.404C90.0631 88.373 89.9761 88.342 89.8871 88.31C89.5761 88.198 89.2601 88.083 88.9331 87.961C88.9201 87.956 88.9071 87.951 88.8941 87.947C88.5721 87.828 88.2431 87.704 87.9091 87.577C87.8111 87.54 87.7131 87.503 87.6141 87.465C87.3201 87.353 87.0241 87.24 86.7251 87.124C86.6691 87.102 86.6141 87.081 86.5581 87.06C86.2031 86.922 85.8441 86.783 85.4851 86.642C85.3931 86.606 85.3021 86.57 85.2101 86.534C84.9181 86.419 84.6251 86.303 84.3331 86.187C84.2541 86.156 84.1751 86.124 84.0961 86.093C83.7291 85.947 83.3631 85.8 83.0011 85.655C82.9631 85.64 82.9271 85.625 82.8891 85.61C82.5691 85.481 82.2521 85.353 81.9401 85.227C81.8531 85.192 81.7681 85.157 81.6821 85.122C80.9751 84.835 80.2961 84.557 79.6581 84.294C79.6151 84.276 79.5731 84.259 79.5301 84.241C79.2111 84.11 78.9001 83.981 78.6061 83.86L74.9741 96.312L60.4141 100.772L48.8791 97.825C48.8791 97.825 44.8451 86.857 44.2151 83.201C44.2061 83.146 44.1861 83.1 44.1751 83.046C43.5331 83.315 42.7091 83.659 41.7611 84.051C41.7581 84.052 41.7551 84.054 41.7521 84.055C41.6211 84.109 41.4871 84.164 41.3511 84.22C41.2501 84.262 41.1501 84.303 41.0471 84.345C40.9431 84.388 40.8391 84.43 40.7341 84.474C40.6151 84.523 40.4951 84.572 40.3731 84.622C40.2521 84.672 40.1311 84.721 40.0071 84.772C39.8581 84.833 39.7071 84.894 39.5551 84.956C39.4761 84.988 39.3991 85.02 39.3191 85.052C39.0711 85.153 38.8201 85.255 38.5661 85.357C38.5181 85.376 38.4701 85.396 38.4221 85.415C38.2201 85.496 38.0171 85.578 37.8131 85.66C37.7221 85.697 37.6311 85.733 37.5391 85.77C37.3691 85.838 37.1991 85.906 37.0291 85.974C36.9351 86.011 36.8411 86.049 36.7471 86.086C36.5481 86.165 36.3501 86.244 36.1501 86.323C36.0941 86.345 36.0381 86.367 35.9821 86.39C35.7271 86.491 35.4731 86.591 35.2191 86.69C35.2021 86.696 35.1861 86.703 35.1701 86.709C34.9061 86.812 34.6431 86.915 34.3811 87.016C34.3221 87.039 34.2651 87.061 34.2061 87.084C33.9981 87.164 33.7921 87.244 33.5871 87.322C33.5221 87.347 33.4571 87.372 33.3921 87.397C33.2001 87.47 33.0091 87.543 32.8201 87.614C32.7461 87.642 32.6721 87.67 32.5981 87.698C32.3911 87.776 32.1871 87.852 31.9851 87.927C31.9461 87.941 31.9061 87.957 31.8671 87.971C31.6151 88.064 31.3671 88.155 31.1251 88.243L31.1211 88.244C30.8931 88.327 30.6721 88.406 30.4541 88.483C30.3901 88.506 30.3281 88.527 30.2651 88.549C30.1091 88.604 29.9571 88.657 29.8071 88.709C29.7371 88.733 29.6691 88.757 29.6011 88.78C29.4541 88.83 29.3121 88.878 29.1721 88.924C29.1141 88.943 29.0551 88.963 28.9981 88.982C28.8311 89.037 28.6711 89.088 28.5161 89.137C28.4931 89.144 28.4681 89.152 28.4451 89.16C28.2671 89.216 28.0981 89.266 27.9381 89.313C27.9031 89.323 27.8711 89.332 27.8361 89.342C27.7181 89.376 27.6041 89.407 27.4961 89.435C27.4481 89.448 27.4031 89.458 27.3581 89.47C27.2691 89.492 27.1851 89.512 27.1061 89.53C27.0631 89.539 27.0211 89.549 26.9801 89.557C26.9031 89.573 26.8331 89.585 26.7661 89.595C26.7361 89.6 26.7031 89.606 26.6751 89.61C26.5861 89.622 26.5051 89.629 26.4391 89.629C24.1701 89.629 8.03412 92.655 5.63812 95.05C3.24312 97.445 2.23413 110.052 2.23413 110.052C2.23413 110.052 25.0601 130.052 60.4131 130.052C95.7661 130.052 118.594 110.054 118.594 110.054Z" fill="#1A2E40"/>
<path d="M60.5051 110.834C60.4741 110.6 60.1461 110.586 60.1301 110.834C60.0101 112.747 60.1961 114.708 60.2031 116.627C60.2101 118.558 60.1881 120.49 60.1461 122.421C60.1391 122.763 60.6711 122.763 60.6771 122.421C60.7101 120.49 60.7121 118.559 60.6871 116.627C60.6641 114.718 60.7581 112.728 60.5051 110.834Z" fill="#34495E"/>
<path d="M42.4512 107.911L60.4152 100.773C49.6992 94.722 45.6022 82.446 45.6022 82.446C45.6022 82.446 43.8062 83.21 41.3132 84.237C40.7802 90.98 42.4512 107.911 42.4512 107.911Z" fill="#34495E"/>
<path d="M78.3792 107.911L60.4152 100.773C71.1312 94.722 75.2281 82.446 75.2281 82.446C75.2281 82.446 77.0242 83.21 79.5172 84.237C80.0502 90.98 78.3792 107.911 78.3792 107.911Z" fill="#34495E"/>
<path d="M12.2901 95.147C12.2901 95.147 11.061 91.554 12.952 90.892C14.843 90.23 32.429 85.219 33.28 86.921C34.131 88.623 35.36 89.757 33.469 91.176C31.578 92.595 13.1411 97.416 12.2901 95.147Z" fill="#34495E"/>
<path d="M109.9 95.147C109.9 95.147 111.129 91.554 109.238 90.892C107.347 90.23 89.7611 85.219 88.9101 86.921C88.0591 88.623 86.8301 89.757 88.7211 91.176C90.6131 92.595 109.05 97.416 109.9 95.147Z" fill="#34495E"/>
<path d="M99.0861 109.006C99.0841 109.006 99.0821 109.006 99.0791 109.006C98.9441 109.002 98.8381 108.89 98.8411 108.755C98.9341 105.188 99.8741 99.3281 99.8841 99.2681C99.9061 99.1351 100.024 99.0481 100.165 99.0661C100.298 99.0881 100.388 99.2131 100.367 99.3471C100.358 99.4051 99.4221 105.234 99.3301 108.769C99.3261 108.901 99.2171 109.006 99.0861 109.006Z" fill="#34495E"/>
<path d="M21.6511 108.817C21.5281 108.817 21.4221 108.725 21.4081 108.6C21.0361 105.16 19.2591 98.5871 19.2411 98.5211C19.2061 98.3911 19.2831 98.2571 19.4131 98.2221C19.5421 98.1891 19.6771 98.2641 19.7131 98.3941C19.7311 98.4611 21.5181 105.071 21.8951 108.548C21.9091 108.683 21.8121 108.803 21.6781 108.818C21.6681 108.817 21.6591 108.817 21.6511 108.817Z" fill="#34495E"/>
<path d="M60.4161 108.629C60.2811 108.629 60.1721 108.519 60.1721 108.385V102.712C60.1721 102.577 60.2821 102.468 60.4161 102.468C60.5501 102.468 60.6601 102.578 60.6601 102.712V108.385C60.6601 108.519 60.5501 108.629 60.4161 108.629Z" fill="#34495E"/>
<path d="M83.6182 50.657C83.6182 50.657 87.3552 47.511 89.8772 50.368C92.3992 53.225 86.3132 60.241 81.6212 61.451L83.6182 50.657Z" fill="#F3D4A8"/>
<path d="M83.0852 55.768C83.0412 55.768 82.9961 55.756 82.9561 55.732C82.8411 55.66 82.8062 55.511 82.8772 55.395C85.5012 51.155 88.6872 51.058 88.8222 51.056H88.8262C88.9592 51.056 89.0672 51.163 89.0702 51.295C89.0722 51.43 88.9652 51.541 88.8302 51.544C88.7992 51.545 85.7662 51.654 83.2922 55.652C83.2462 55.726 83.1662 55.768 83.0852 55.768Z" fill="#E2B670"/>
<path d="M88.2671 54.168C88.2271 54.168 88.1862 54.158 88.1482 54.137C88.1322 54.127 86.4491 53.194 85.5611 53.036C85.4281 53.012 85.3401 52.885 85.3631 52.753C85.3861 52.62 85.5131 52.529 85.6461 52.556C86.6141 52.729 88.3132 53.67 88.3852 53.71C88.5022 53.776 88.5442 53.925 88.4802 54.043C88.4362 54.124 88.3531 54.168 88.2671 54.168Z" fill="#E2B670"/>
<path d="M40.4302 50.7461C40.4302 50.7461 36.6872 47.6081 34.1702 50.4701C31.6542 53.3331 37.7552 60.3361 42.4492 61.5361L40.4302 50.7461Z" fill="#F3D4A8"/>
<path d="M40.9733 55.8551C40.8923 55.8551 40.8123 55.8141 40.7663 55.7401C38.2823 51.7481 35.2502 51.6451 35.2202 51.6441C35.0862 51.6411 34.9783 51.5311 34.9803 51.3961C34.9833 51.2611 35.0933 51.1371 35.2273 51.1551C35.3623 51.1571 38.5472 51.2471 41.1812 55.4821C41.2532 55.5971 41.2172 55.7471 41.1032 55.8181C41.0622 55.8441 41.0173 55.8551 40.9733 55.8551Z" fill="#E2B670"/>
<path d="M35.7872 54.2681C35.7022 54.2681 35.6182 54.2231 35.5742 54.1431C35.5082 54.0261 35.5502 53.8771 35.6682 53.8111C35.7402 53.7701 37.4372 52.8251 38.4032 52.6501C38.5382 52.6211 38.6632 52.7151 38.6872 52.8471C38.7112 52.9811 38.6232 53.1071 38.4902 53.1311C37.6032 53.2911 35.9232 54.2281 35.9052 54.2371C35.8692 54.2581 35.8282 54.2681 35.7872 54.2681Z" fill="#E2B670"/>
<path d="M37.5351 44.6271C37.5351 44.6271 40.9391 64.797 43.0821 69.21C45.2251 73.622 57.4531 78.6651 60.3531 79.2951C63.2531 79.9251 74.7242 73.3701 77.4982 71.3531C80.2712 69.3361 86.0702 54.3341 87.2052 43.9971C88.3402 33.6601 85.9442 26.096 83.6752 21.684C81.4062 17.272 64.0091 13.2381 56.3191 13.7421C48.6291 14.2461 42.4521 19.4151 40.5611 22.9451C38.6691 26.4741 36.7781 40.8451 37.5351 44.6271Z" fill="#F3D4A8"/>
<path d="M36.2112 38.324C36.2112 38.324 33.6332 41.486 34.5882 45.235C35.5442 48.984 38.8612 51.964 38.8612 51.964C38.8612 51.964 40.8632 52.438 41.2172 50.454C41.5712 48.469 42.4482 36.415 42.4482 36.415L36.2112 38.324Z" fill="#8A4A29"/>
<path d="M88.2132 38.986C88.2132 38.986 90.7912 42.148 89.8362 45.897C88.8812 49.646 85.5632 52.626 85.5632 52.626C85.5632 52.626 83.5612 53.1 83.2072 51.116C82.8532 49.131 81.9762 37.077 81.9762 37.077L88.2132 38.986Z" fill="#8A4A29"/>
<path d="M59.2162 59.947C59.2162 59.947 63.4422 60.093 63.4422 60.311C63.4422 60.53 61.3292 61.404 60.7462 61.258C60.1642 61.113 59.2162 59.947 59.2162 59.947Z" fill="#E2B670"/>
<path d="M71.6822 48.9761C71.6822 50.3861 71.1632 51.5291 70.5242 51.5291C69.8842 51.5291 69.3661 50.3861 69.3661 48.9761C69.3661 47.5661 69.8842 46.4231 70.5242 46.4231C71.1642 46.4231 71.6822 47.5661 71.6822 48.9761Z" fill="#1F0E07"/>
<path d="M61.3862 70.9C57.4642 70.9 54.7571 68.602 54.7171 68.566C54.5141 68.389 54.4921 68.081 54.6691 67.878C54.8461 67.674 55.1541 67.654 55.3581 67.828C55.5801 68.022 60.9151 72.516 67.4411 67.801C67.6601 67.645 67.9652 67.691 68.1232 67.911C68.2812 68.13 68.2321 68.435 68.0131 68.593C65.6211 70.323 63.3502 70.9 61.3862 70.9Z" fill="#FF8D8D"/>
<path d="M66.9701 41.6301C67.8831 41.3291 68.7451 41.1431 69.6461 40.9981C70.5401 40.8591 71.4421 40.7871 72.3441 40.7791C73.2451 40.7641 74.1472 40.8351 75.0352 40.9781C75.9262 41.1021 76.7912 41.3671 77.6362 41.6541C77.7612 41.6971 77.8282 41.8321 77.7852 41.9571C77.7452 42.0751 77.6212 42.1421 77.5022 42.1121L77.4862 42.1081C76.6502 41.9001 75.8101 41.7171 74.9521 41.6711C74.0981 41.6061 73.2402 41.6101 72.3902 41.6961C71.5402 41.7751 70.6962 41.9141 69.8682 42.1141C69.0492 42.3141 68.2091 42.5771 67.4781 42.8891L67.4502 42.9011C67.1052 43.0481 66.7052 42.8871 66.5582 42.5421C66.4112 42.1961 66.5722 41.7971 66.9172 41.6501C66.9342 41.6431 66.9521 41.6361 66.9701 41.6301Z" fill="#1F0E07"/>
<path d="M56.0022 42.8901C55.2702 42.5781 54.4301 42.315 53.6121 42.115C52.7841 41.914 51.9401 41.775 51.0901 41.697C50.2391 41.611 49.3812 41.607 48.5282 41.672C47.6702 41.718 46.8292 41.9021 45.9932 42.1091L45.9781 42.1131C45.8501 42.1451 45.7202 42.067 45.6882 41.939C45.6582 41.818 45.7272 41.695 45.8432 41.655C46.6882 41.367 47.5531 41.1031 48.4441 40.9791C49.3311 40.8361 50.2342 40.765 51.1352 40.78C52.0362 40.788 52.9392 40.86 53.8332 40.999C54.7342 41.144 55.5961 41.3291 56.5091 41.6311C56.8661 41.7491 57.0592 42.133 56.9422 42.49C56.8242 42.847 56.4402 43.0401 56.0832 42.9231C56.0652 42.9171 56.0481 42.9111 56.0311 42.9031L56.0022 42.8901Z" fill="#1F0E07"/>
<path d="M51.7971 48.9761C51.7971 50.3861 52.3151 51.5291 52.9551 51.5291C53.5951 51.5291 54.1131 50.3861 54.1131 48.9761C54.1131 47.5661 53.5951 46.4231 52.9551 46.4231C52.3151 46.4231 51.7971 47.5661 51.7971 48.9761Z" fill="#1F0E07"/>
<path d="M35.6772 35.374C34.2112 35.593 32.7432 35.813 31.2632 35.953C29.3372 36.135 27.1522 35.8471 25.9362 34.3431C24.9382 33.1091 24.8612 31.3181 25.3772 29.8171C27.1922 24.5391 33.3242 20.315 37.9052 17.564C45.8282 12.805 54.7942 9.86704 63.9492 8.70304C68.4912 8.12504 73.0892 7.98304 77.6582 8.28104C81.9582 8.56204 86.9992 8.54703 90.7442 11.171C94.5642 13.847 94.0671 18.3511 93.1201 22.3691C92.0911 26.7341 90.5182 31.1521 88.2132 35.0151C88.0012 35.3701 82.9332 34.648 82.2312 34.602C80.0062 34.457 77.7792 34.322 75.5522 34.207C70.9872 33.971 66.4172 33.816 61.8452 33.81C53.1722 33.799 44.2632 34.09 35.6772 35.374Z" fill="#D14040"/>
<path d="M79.5731 12.0671C71.0881 11.3171 62.4491 12.6361 54.5701 15.8731C52.3821 16.7721 50.1621 17.7741 48.1661 19.0521C47.9881 19.1661 48.1441 19.4321 48.3321 19.3351C50.2101 18.3731 52.0511 17.3771 53.9981 16.5551C55.9361 15.7371 57.9241 15.0371 59.9461 14.4551C64.0231 13.2821 68.2371 12.5951 72.4761 12.4221C74.8431 12.3251 77.2141 12.3921 79.5731 12.6131C79.9231 12.6471 79.9221 12.0981 79.5731 12.0671Z" fill="#FF8D8D"/>
<path d="M89.0142 11.693C81.7602 8.61199 73.6682 8.83201 66.0012 9.86901C58.5682 10.873 51.2772 12.836 44.5192 16.125C40.7752 17.947 37.2432 20.191 34.0732 22.894C33.8962 23.045 34.1512 23.294 34.3272 23.148C40.0112 18.431 46.6332 15.182 53.6732 13.037C57.1392 11.981 60.6842 11.201 64.2622 10.638C68.0422 10.044 71.8782 9.65601 75.7082 9.68801C80.1622 9.72501 84.6372 10.382 88.7572 12.131C89.0552 12.258 89.3142 11.82 89.0142 11.693Z" fill="#FF8D8D"/>
<path d="M36.2112 38.324L35.6442 35.015C35.6442 35.015 63.7252 30.666 88.2132 35.015V38.986C88.2132 38.986 65.6162 33.691 36.2112 38.324Z" fill="#1A2E40"/>
</g>
</svg>
