<svg width="125" height="125" viewBox="0 0 125 125" fill="none" xmlns="http://www.w3.org/2000/svg">
<path d="M62.165 124.33C96.4978 124.33 124.33 96.4978 124.33 62.165C124.33 27.8322 96.4978 0 62.165 0C27.8322 0 0 27.8322 0 62.165C0 96.4978 27.8322 124.33 62.165 124.33Z" fill="#B6BA2C"/>
<mask id="mask0_12_80" style="mask-type:luminance" maskUnits="userSpaceOnUse" x="0" y="0" width="125" height="125">
<path d="M62.165 124.33C96.4978 124.33 124.33 96.4978 124.33 62.165C124.33 27.8322 96.4978 0 62.165 0C27.8322 0 0 27.8322 0 62.165C0 96.4978 27.8322 124.33 62.165 124.33Z" fill="white"/>
</mask>
<g mask="url(#mask0_12_80)">
<path d="M110.574 110.307C110.574 110.307 91.81 130.307 59.512 130.307C27.214 130.307 8.14599 110.307 8.14599 110.307C7.01299 102.745 12.679 91.773 16.089 89.878C17.779 88.95 24.98 88.002 32.004 87.084C39.117 86.156 46.043 85.2569 46.903 84.3969C46.962 84.3379 47.01 84.27 47.069 84.192C48.574 81.877 48.046 70.2109 48.046 70.2109H70.673C70.673 70.2109 70.106 82.6969 71.806 84.3969C71.933 84.5239 72.187 84.6509 72.549 84.7679C74.601 85.4809 80.15 86.224 85.973 86.986C93.222 87.934 100.882 88.911 102.631 89.878C106.041 91.773 111.708 102.745 110.574 110.307Z" fill="#D14040"/>
<path d="M22.136 108.657C22.128 108.657 22.121 108.657 22.114 108.656C21.979 108.644 21.88 108.525 21.893 108.391C22.27 104.247 25.307 95.7079 25.436 95.3469C25.482 95.2199 25.621 95.1559 25.748 95.1989C25.875 95.2439 25.941 95.3839 25.896 95.5109C25.865 95.5989 22.751 104.355 22.38 108.435C22.368 108.562 22.261 108.657 22.136 108.657Z" fill="#A1234E"/>
<path d="M95.6311 108.405C95.5181 108.405 95.4161 108.325 95.3921 108.209C93.7781 100.261 91.522 94.946 91.499 94.894C91.446 94.77 91.5031 94.626 91.6271 94.573C91.7521 94.521 91.8951 94.577 91.9481 94.701C91.9701 94.754 94.2461 100.112 95.8711 108.112C95.8981 108.245 95.812 108.373 95.68 108.4C95.664 108.403 95.6471 108.405 95.6311 108.405Z" fill="#A1234E"/>
<path d="M55.228 108.918C55.228 108.918 37.831 66.182 38.588 66.371C39.345 66.56 80 66.371 80 66.371L67.709 101.921L59.483 109.674L55.228 108.918Z" fill="white"/>
<path d="M33.4821 37.124C33.4821 37.124 35.5621 59.248 38.3981 65.678C41.2341 72.107 53.9041 80.806 58.0641 80.617C62.2241 80.428 75.6501 72.864 79.0541 68.326C82.4581 63.788 86.0511 47.903 85.4831 38.638C84.9161 29.372 73.0031 15.568 63.7371 15.001C54.4711 14.434 46.3401 15.757 42.3691 19.35C38.3981 22.941 34.0491 30.884 33.4821 37.124Z" fill="#EEC19F"/>
<path d="M36.381 39.834C36.381 39.834 59.703 32.27 85.294 41.725C85.294 41.725 84.664 26.345 79.621 22.563C74.578 18.781 56.299 17.647 52.139 19.411C47.979 21.176 39.28 26.471 38.272 28.614C37.263 30.757 36.381 39.834 36.381 39.834Z" fill="white"/>
<path d="M57.8121 62.0601L60.3961 62.2491C60.3961 62.2491 59.3881 62.816 58.8831 62.785C58.3791 62.754 57.8121 62.0601 57.8121 62.0601Z" fill="#E2797F"/>
<path d="M68.8191 50.19C68.8191 51.254 68.4271 52.116 67.9441 52.116C67.4611 52.116 67.0701 51.254 67.0701 50.19C67.0701 49.126 67.4621 48.264 67.9441 48.264C68.4271 48.264 68.8191 49.127 68.8191 50.19Z" fill="#1A2E40"/>
<path opacity="0.35" d="M79.6841 60.138C79.6841 62.469 76.8401 64.359 73.3331 64.359C69.8251 64.359 66.9821 62.469 66.9821 60.138C66.9821 57.807 69.8261 55.917 73.3331 55.917C76.8411 55.916 79.6841 57.806 79.6841 60.138Z" fill="#EEC19F"/>
<path opacity="0.35" d="M51.6051 60.138C51.6051 62.469 48.7621 64.359 45.2541 64.359C41.7461 64.359 38.9031 62.469 38.9031 60.138C38.9031 57.807 41.7471 55.917 45.2541 55.917C48.7611 55.916 51.6051 57.806 51.6051 60.138Z" fill="#EEC19F"/>
<path d="M59.1161 71.1381C56.3021 71.1381 54.4941 69.2161 54.4671 69.1861C54.3051 69.0091 54.3171 68.7351 54.4941 68.5721C54.6701 68.4111 54.9461 68.4221 55.1091 68.5981C55.2511 68.7521 58.6541 72.3301 63.4351 68.5511C63.6241 68.4021 63.8981 68.4351 64.0471 68.6231C64.1961 68.8121 64.1641 69.0861 63.9751 69.2351C62.1701 70.6601 60.5181 71.1381 59.1161 71.1381Z" fill="#DB2E3A"/>
<path d="M66.4481 48.093C66.3761 48.093 66.304 48.061 66.256 48.001C66.173 47.896 66.1901 47.742 66.2951 47.658C66.3151 47.642 68.2221 46.155 70.1291 47.479L70.425 47.247C70.529 47.164 70.6841 47.181 70.7681 47.288C70.8511 47.394 70.8331 47.5481 70.7261 47.6311L70.285 47.9781C70.198 48.0471 70.074 48.047 69.985 47.979C68.334 46.697 66.6701 47.984 66.5991 48.04C66.5541 48.075 66.5011 48.093 66.4481 48.093Z" fill="#1A2E40"/>
<path d="M64.8141 42.771C65.5641 42.357 66.3121 42.069 67.1011 41.836C67.8861 41.609 68.6961 41.467 69.5131 41.417C70.3291 41.358 71.1561 41.425 71.9551 41.595C72.7641 41.741 73.5211 42.077 74.2501 42.435C74.3691 42.494 74.4181 42.638 74.3591 42.757C74.3021 42.873 74.1641 42.923 74.0461 42.87L74.0261 42.861C73.3251 42.549 72.6081 42.258 71.8471 42.151C71.0951 42.02 70.3241 41.984 69.5621 42.067C68.8011 42.141 68.0471 42.301 67.3181 42.54C66.5971 42.779 65.8701 43.096 65.2451 43.471L65.2241 43.484C65.0291 43.601 64.7771 43.538 64.6601 43.343C64.5431 43.148 64.6061 42.896 64.8011 42.779C64.8041 42.776 64.8101 42.773 64.8141 42.771Z" fill="#1A2E40"/>
<path d="M49.925 50.19C49.925 51.254 50.317 52.116 50.8 52.116C51.283 52.116 51.674 51.254 51.674 50.19C51.674 49.126 51.282 48.264 50.8 48.264C50.317 48.264 49.925 49.127 49.925 50.19Z" fill="#1A2E40"/>
<path d="M52.296 48.093C52.243 48.093 52.19 48.075 52.145 48.04C52.074 47.985 50.409 46.699 48.759 47.979C48.67 48.047 48.546 48.048 48.459 47.978L48.018 47.631C47.912 47.547 47.893 47.394 47.976 47.288C48.06 47.182 48.214 47.165 48.319 47.247L48.615 47.479C50.524 46.156 52.43 47.643 52.45 47.658C52.555 47.742 52.573 47.895 52.489 48.001C52.44 48.06 52.368 48.093 52.296 48.093Z" fill="#1A2E40"/>
<path d="M53.4991 43.47C52.8751 43.095 52.1481 42.778 51.4261 42.539C50.6971 42.3 49.9431 42.14 49.1821 42.066C48.4201 41.983 47.6491 42.019 46.8971 42.15C46.1361 42.257 45.4191 42.548 44.7181 42.86L44.6981 42.869C44.5771 42.923 44.4351 42.868 44.3811 42.747C44.3281 42.629 44.3791 42.49 44.4941 42.434C45.2231 42.075 45.9791 41.739 46.7891 41.594C47.5891 41.425 48.4151 41.357 49.2311 41.416C50.0481 41.465 50.8581 41.608 51.6431 41.835C52.4321 42.069 53.1801 42.356 53.9301 42.77C54.1291 42.88 54.2011 43.13 54.0911 43.328C53.9811 43.527 53.7311 43.599 53.5331 43.489C53.5291 43.487 53.5261 43.485 53.5221 43.483L53.4991 43.47Z" fill="#1A2E40"/>
<path d="M83.971 76.962C83.971 76.962 94.366 56.347 91.533 36.495C88.7 16.642 80.942 6.61801 61.471 7.18501C41.99 7.75201 35.18 15.88 31.028 33.847C26.866 51.814 33.48 76.767 33.48 76.767C31.888 79.952 31.399 83.44 32.005 87.084C32.806 92.106 35.659 97.421 40.476 102.677C44.907 107.509 50.789 110.58 57.432 110.774C71.046 111.172 80.859 98.363 85.974 86.986C86.814 85.13 87.224 83.693 87.185 82.824C86.999 78.662 83.971 76.962 83.971 76.962ZM59.575 108.353C59.575 108.353 52.951 96.991 47.069 84.192C44.812 79.288 42.663 74.168 41.041 69.4C35.179 52.185 36.322 41.409 37.827 35.166C39.341 28.933 46.337 18.342 62.037 19.856C77.728 21.361 83.971 30.632 83.218 48.218C82.788 58.213 78.138 72.233 72.549 84.768C68.29 94.294 63.493 102.96 59.575 108.353Z" fill="white"/>
<path d="M58.8211 106.893C58.7341 106.893 58.65 106.846 58.606 106.765C58.513 106.592 49.221 89.3709 44.731 79.3929C44.676 79.2699 44.7311 79.1259 44.8541 79.0709C44.9761 79.0139 45.122 79.07 45.177 79.193C49.66 89.155 58.943 106.36 59.036 106.533C59.1 106.652 59.0561 106.8 58.9371 106.864C58.9001 106.883 58.8601 106.893 58.8211 106.893Z" fill="#EBCACA"/>
<path d="M62.35 104.623C62.306 104.623 62.263 104.611 62.224 104.588C62.108 104.518 62.072 104.368 62.141 104.252C62.228 104.109 70.867 89.796 74.223 80.72C74.27 80.594 74.411 80.528 74.537 80.576C74.663 80.623 74.728 80.763 74.681 80.89C71.308 90.009 62.646 104.362 62.559 104.506C62.513 104.581 62.433 104.623 62.35 104.623Z" fill="#EBCACA"/>
<path d="M57.938 99.959C57.804 99.959 57.695 99.851 57.694 99.717L57.568 84.211C57.567 84.077 57.675 83.966 57.81 83.965H57.812C57.946 83.965 58.055 84.073 58.056 84.207L58.182 99.713C58.183 99.848 58.075 99.958 57.94 99.959H57.938Z" fill="#EBCACA"/>
<path d="M61.846 96.933C61.717 96.933 61.609 96.832 61.602 96.702L60.972 84.852C60.965 84.717 61.068 84.602 61.203 84.594C61.336 84.599 61.453 84.691 61.46 84.825L62.09 96.675C62.097 96.81 61.994 96.925 61.859 96.933C61.854 96.933 61.85 96.933 61.846 96.933Z" fill="#EBCACA"/>
<path d="M54.466 109.065C54.406 109.065 54.347 109.043 54.3 109C40.273 96.011 34.441 79.161 34.384 78.992C34.341 78.864 34.409 78.726 34.537 78.683C34.664 78.636 34.803 78.707 34.847 78.836C34.904 79.003 40.699 95.74 54.632 108.641C54.731 108.733 54.737 108.887 54.645 108.986C54.598 109.038 54.532 109.065 54.466 109.065Z" fill="#EBCACA"/>
<path d="M63.857 109.23C63.8 109.23 63.743 109.21 63.696 109.169C63.595 109.08 63.585 108.927 63.674 108.825C73.523 97.593 81.966 80.491 82.05 80.319C82.11 80.199 82.256 80.148 82.377 80.207C82.498 80.266 82.548 80.413 82.489 80.534C82.405 80.706 73.934 97.865 64.042 109.146C63.993 109.202 63.925 109.23 63.857 109.23Z" fill="#EBCACA"/>
<path d="M33.985 50.668C33.867 50.668 33.763 50.582 33.744 50.461C33.716 50.284 31.061 32.574 40.353 21.399C43.862 17.178 48.897 14.675 55.316 13.96C55.452 13.945 55.571 14.042 55.586 14.176C55.601 14.31 55.504 14.431 55.37 14.446C49.08 15.147 44.154 17.592 40.729 21.711C31.579 32.715 34.199 50.211 34.227 50.386C34.248 50.519 34.157 50.644 34.023 50.665C34.011 50.667 33.998 50.668 33.985 50.668Z" fill="#EBCACA"/>
<path d="M69.536 15.622C69.512 15.622 69.487 15.619 69.463 15.611C69.432 15.601 66.281 14.63 61.731 14.328C61.596 14.319 61.494 14.203 61.503 14.068C61.512 13.933 61.632 13.831 61.763 13.841C65.449 14.086 68.506 14.801 69.609 15.145C69.738 15.185 69.809 15.322 69.769 15.451C69.736 15.555 69.64 15.622 69.536 15.622Z" fill="#EBCACA"/>
<path d="M85.0421 60.123C85.0151 60.123 84.9881 60.119 84.9611 60.109C84.8341 60.065 84.7661 59.925 84.8111 59.798C84.8701 59.63 90.6331 42.824 84.5641 28.584C84.5111 28.46 84.5691 28.316 84.6931 28.263C84.8181 28.211 84.9611 28.268 85.0141 28.392C91.1571 42.81 85.3321 59.789 85.2721 59.959C85.2371 60.06 85.1431 60.123 85.0421 60.123Z" fill="#EBCACA"/>
<path d="M37.453 37.8721C37.445 37.8721 37.437 37.8711 37.43 37.8711C37.296 37.8581 37.197 37.7391 37.21 37.6051C37.217 37.5341 37.947 30.4541 43.714 24.9701C49.526 19.4441 59.422 18.6651 66.158 20.2771C73.027 21.9211 77.856 25.1371 80.123 29.5751C82.382 33.9981 83.07 37.4531 83.076 37.4871C83.102 37.6201 83.015 37.7471 82.883 37.7741C82.752 37.7961 82.623 37.7131 82.596 37.5811C82.59 37.5471 81.913 34.1551 79.687 29.7981C77.488 25.4911 72.77 22.3631 66.044 20.7531C59.431 19.1701 49.729 19.9261 44.05 25.3251C38.42 30.6781 37.702 37.5831 37.696 37.6511C37.683 37.7771 37.577 37.8721 37.453 37.8721Z" fill="#EBCACA"/>
<path d="M76.8791 35.603C76.8521 35.603 76.8241 35.599 76.7971 35.589C61.3511 30.1 40.928 34.886 40.723 34.935C40.591 34.966 40.46 34.885 40.429 34.754C40.397 34.623 40.479 34.491 40.61 34.46C40.816 34.411 61.3781 29.591 76.9601 35.129C77.0871 35.174 77.154 35.314 77.108 35.44C77.074 35.54 76.9801 35.603 76.8791 35.603Z" fill="#EBCACA"/>
<path d="M45.772 30.97C45.656 30.97 45.554 30.888 45.532 30.769C45.508 30.636 45.596 30.509 45.729 30.485C45.818 30.469 54.709 28.873 60.447 29.348C60.582 29.359 60.681 29.477 60.67 29.611C60.659 29.746 60.542 29.845 60.407 29.834C54.738 29.374 45.904 30.95 45.815 30.966C45.801 30.969 45.787 30.97 45.772 30.97Z" fill="#EBCACA"/>
</g>
</svg>
