<svg width="125" height="125" viewBox="0 0 125 125" fill="none" xmlns="http://www.w3.org/2000/svg">
<path d="M62.2861 124.328C96.6183 124.328 124.45 96.4962 124.45 62.164C124.45 27.8318 96.6183 0 62.2861 0C27.9538 0 0.12207 27.8318 0.12207 62.164C0.12207 96.4962 27.9538 124.328 62.2861 124.328Z" fill="#D14040"/>
<mask id="mask0_12_747" style="mask-type:luminance" maskUnits="userSpaceOnUse" x="0" y="0" width="125" height="125">
<path d="M62.2861 124.328C96.6183 124.328 124.45 96.4962 124.45 62.164C124.45 27.8318 96.6183 0 62.2861 0C27.9538 0 0.12207 27.8318 0.12207 62.164C0.12207 96.4962 27.9538 124.328 62.2861 124.328Z" fill="white"/>
</mask>
<g mask="url(#mask0_12_747)">
<path d="M119.114 114.069C119.114 114.069 100.901 134.069 61.411 134.069C21.921 134.069 2.75305 114.069 2.75305 114.069C2.75305 114.069 3.76902 101.466 6.16302 99.072C8.55702 96.678 24.697 93.65 26.963 93.65C27.237 93.65 27.705 93.552 28.341 93.367C31.243 92.546 37.4171 90.075 41.6671 88.326C44.2461 87.261 46.122 86.46 46.122 86.46C47.509 83.06 49.151 74.863 49.151 74.863H72.726C72.726 74.863 74.358 83.06 75.745 86.46C75.745 86.46 77.416 87.173 79.78 88.15C83.835 89.821 89.921 92.273 93.087 93.23C93.937 93.494 94.582 93.65 94.914 93.65C97.181 93.65 113.321 96.679 115.714 99.072C118.108 101.465 119.114 114.069 119.114 114.069Z" fill="#8A4A29"/>
<path d="M84.164 131.646V92.2C61.189 104.491 38.592 92.2 38.592 92.2L40.0551 131.959C46.3631 133.252 53.469 134.069 61.412 134.069C69.99 134.069 77.562 133.123 84.164 131.646Z" fill="white"/>
<path d="M61.678 100.815C51.711 100.815 44.74 97.9499 44.642 97.9089C44.517 97.8559 44.459 97.7129 44.511 97.5889C44.562 97.4649 44.708 97.4049 44.831 97.4579C44.966 97.5149 58.659 103.136 75.114 98.4879C75.251 98.4539 75.379 98.5269 75.416 98.6569C75.453 98.7869 75.378 98.9219 75.248 98.9579C70.398 100.329 65.784 100.815 61.678 100.815Z" fill="#EBCACA"/>
<path d="M39.9151 51.071C39.9151 51.071 35.2821 48.802 33.3911 51.166C31.5001 53.53 33.2021 64.308 41.9001 65.726L39.9151 51.071Z" fill="#8A4A29"/>
<path d="M40.5141 58.532C40.4361 58.532 40.3591 58.494 40.3111 58.424C37.3261 53.976 34.5631 53.301 34.5361 53.294C34.4041 53.264 34.3221 53.134 34.3521 53.002C34.3811 52.87 34.5061 52.786 34.6431 52.817C34.7621 52.844 37.6101 53.522 40.7181 58.151C40.7921 58.263 40.7631 58.415 40.6511 58.49C40.6091 58.519 40.5611 58.532 40.5141 58.532Z" fill="#592B14"/>
<path d="M38.3072 56.0109C38.2882 56.0109 38.2682 56.009 38.2482 56.004C36.7992 55.641 35.0182 55.881 35.0002 55.883C34.8592 55.903 34.7432 55.807 34.7242 55.674C34.7062 55.541 34.7992 55.4169 34.9332 55.3989C35.0092 55.3879 36.8261 55.145 38.3661 55.53C38.4971 55.563 38.5772 55.696 38.5442 55.826C38.5162 55.937 38.4172 56.0109 38.3072 56.0109Z" fill="#592B14"/>
<path d="M84.6051 51.071C84.6051 51.071 89.2381 48.802 91.1291 51.166C93.0201 53.53 91.3181 64.308 82.6201 65.726L84.6051 51.071Z" fill="#8A4A29"/>
<path d="M84.0061 58.532C83.9591 58.532 83.9111 58.519 83.8691 58.491C83.7571 58.416 83.7281 58.264 83.8021 58.152C86.9091 53.523 89.7581 52.844 89.8771 52.818C90.0121 52.787 90.1391 52.871 90.1681 53.003C90.1981 53.134 90.1161 53.265 89.9841 53.295C89.9561 53.302 87.1941 53.977 84.2091 58.425C84.1611 58.495 84.0841 58.532 84.0061 58.532Z" fill="#592B14"/>
<path d="M86.2121 56.011C86.1021 56.011 86.0031 55.937 85.9751 55.826C85.9421 55.695 86.0221 55.563 86.1531 55.53C87.6961 55.145 89.5101 55.389 89.5861 55.399C89.7201 55.417 89.8131 55.541 89.7951 55.674C89.7771 55.807 89.6641 55.903 89.5191 55.883C89.5021 55.881 87.7191 55.643 86.2711 56.004C86.2511 56.009 86.2311 56.011 86.2121 56.011Z" fill="#592B14"/>
<path d="M38.0561 48.644C38.0561 48.644 41.4601 68.814 43.6031 73.227C45.7461 77.639 57.9742 82.682 60.8742 83.312C63.7742 83.942 75.2452 77.387 78.0192 75.37C80.7922 73.353 86.5922 58.351 87.7262 48.014C88.8602 37.677 86.4652 30.113 84.1962 25.701C81.9272 21.289 64.5301 17.255 56.8401 17.759C49.1501 18.263 42.9731 23.432 41.0821 26.962C39.1901 30.491 37.2991 44.862 38.0561 48.644Z" fill="#8A4A29"/>
<path d="M60.582 60.541C60.582 60.541 63.324 60.636 63.324 60.777C63.324 60.919 61.953 61.486 61.575 61.392C61.196 61.298 60.582 60.541 60.582 60.541Z" fill="#592B14"/>
<path d="M72.3061 49.3369C72.3061 50.7469 71.7881 51.8899 71.1481 51.8899C70.5081 51.8899 69.9901 50.7469 69.9901 49.3369C69.9901 47.9269 70.5081 46.7839 71.1481 46.7839C71.7871 46.7849 72.3061 47.9279 72.3061 49.3369Z" fill="#1F0E07"/>
<path d="M62.0101 71.261C58.0881 71.261 55.3801 68.963 55.3401 68.927C55.1371 68.75 55.1151 68.442 55.2921 68.239C55.4691 68.035 55.7771 68.014 55.9811 68.19C56.2041 68.384 61.5391 72.879 68.0651 68.163C68.2841 68.005 68.5891 68.053 68.7471 68.273C68.9051 68.492 68.8561 68.797 68.6371 68.955C66.2451 70.684 63.9751 71.261 62.0101 71.261Z" fill="#592B14"/>
<path d="M53.578 51.8899C54.2176 51.8899 54.7361 50.7469 54.7361 49.3369C54.7361 47.927 54.2176 46.7839 53.578 46.7839C52.9385 46.7839 52.42 47.927 52.42 49.3369C52.42 50.7469 52.9385 51.8899 53.578 51.8899Z" fill="#1F0E07"/>
<path d="M67.7501 40.915C69.5891 40.651 71.3911 40.484 73.2311 40.432C74.1481 40.409 75.0681 40.408 75.9931 40.478C76.9171 40.548 77.8461 40.658 78.7691 40.923C79.0281 40.997 79.1781 41.268 79.1041 41.527C79.0341 41.77 78.7921 41.917 78.5481 41.873L78.5281 41.869C76.8611 41.563 75.0751 41.668 73.3291 41.857C71.5811 42.052 69.8131 42.368 68.1161 42.759L68.0951 42.764C67.5891 42.88 67.0841 42.564 66.9671 42.058C66.8511 41.552 67.1671 41.047 67.6731 40.93C67.6981 40.923 67.7251 40.918 67.7501 40.915Z" fill="#1F0E07"/>
<path d="M56.5931 42.758C54.8961 42.368 53.1281 42.051 51.3801 41.856C49.6331 41.668 47.8481 41.562 46.1811 41.868L46.1631 41.871C45.8981 41.92 45.6431 41.744 45.5941 41.479C45.5481 41.23 45.7021 40.99 45.9401 40.921C46.8631 40.656 47.7921 40.546 48.7161 40.476C49.6411 40.406 50.5611 40.408 51.4781 40.43C53.3181 40.482 55.1201 40.65 56.9591 40.913C57.4731 40.987 57.8311 41.463 57.7571 41.978C57.6831 42.492 57.2071 42.85 56.6921 42.776C56.6661 42.772 56.6411 42.768 56.6161 42.762L56.5931 42.758Z" fill="#1F0E07"/>
<path d="M36.7001 56.5549C36.7001 56.5549 33.1071 48.1399 32.0671 43.3179C31.0271 38.4959 30.3651 36.322 30.8381 30.932C31.3111 25.543 31.9731 22.4229 34.7141 18.9239C37.4561 15.4259 40.6711 13.2509 42.4671 13.1569C44.2631 13.0619 48.2341 14.6699 48.7071 17.0329C49.1801 19.3969 49.8421 22.1389 47.3831 24.5969C44.9251 27.0549 43.3171 26.204 42.6561 30.932C41.9941 35.659 43.1291 36.6989 41.6161 39.4409C40.1031 42.1829 38.5901 44.8299 38.5901 45.8699C38.5901 46.9099 39.8191 55.23 40.1971 56.459C40.5751 57.688 41.9931 60.9969 40.3861 61.0919C38.7801 61.1869 37.1731 58.6349 36.7001 56.5549Z" fill="#1F0E07"/>
<path d="M43.3192 21.572C43.3192 21.572 44.6432 26.583 50.5992 27.812C56.5562 29.041 60.3372 26.772 63.4582 27.056C66.5782 27.34 67.9962 28.285 70.2662 28.285C72.5352 28.285 72.9132 26.772 75.4662 28.569C78.0192 30.365 84.1641 34.715 84.6371 36.038C85.1101 37.362 85.8662 43.224 85.8662 44.831C85.8662 46.438 84.7312 49.558 85.6772 50.504C86.6222 51.45 87.0952 54.664 88.9862 51.922C90.8772 49.18 92.4842 43.413 92.8622 38.307C93.2402 33.201 90.0262 26.488 89.8362 21.383C89.6472 16.277 89.0802 12.496 86.0542 10.226C83.0282 7.957 72.3442 8.997 67.2392 6.728C62.1332 4.459 55.6102 3.419 52.3952 4.364C49.1812 5.309 36.9842 10.226 43.3192 21.572Z" fill="#1F0E07"/>
<path d="M85.6772 50.5031C85.6772 50.5031 83.2192 62.1331 82.5572 63.8341C81.8952 65.5361 80.0041 69.7911 77.3571 72.5331C74.7101 75.2751 73.4812 75.369 70.1712 76.693C66.8622 78.017 62.8911 79.435 58.2581 78.111C53.6251 76.787 52.8692 75.18 50.6002 73.951C48.3312 72.722 47.4802 73.289 46.1562 71.871C44.8322 70.453 43.1301 68.1841 42.4691 66.1031C41.8071 64.0231 41.1342 60.0611 41.1342 60.0611L37.1492 57.9071C37.1492 57.9071 39.2542 66.4811 39.9162 68.7511C40.5782 71.0211 43.1312 76.0311 44.3602 77.5441C45.5892 79.0571 52.3021 83.4061 53.9091 84.9191C55.5161 86.4321 55.7052 87.566 58.9202 88.134C62.1352 88.701 63.0802 88.6071 66.7672 87.2831C70.4542 85.9591 72.1562 84.6361 74.8982 82.8391C77.6402 81.0431 81.7062 75.5591 82.5562 73.6681C83.4072 71.7771 85.0141 63.268 85.6761 61.566C86.3381 59.864 88.9852 51.9221 88.9852 51.9221L85.6772 50.5031Z" fill="#1F0E07"/>
<path d="M56.2721 79.057C56.2721 79.057 56.9341 77.261 57.4071 76.22C57.8801 75.18 57.3121 74.707 58.4471 74.518C59.5821 74.329 61.6621 74.234 63.2691 74.329C64.8761 74.423 66.1051 74.518 66.7671 74.896C67.4291 75.274 67.4291 76.125 67.9021 77.165C68.3751 78.205 68.6581 79.718 68.6581 79.718L61.3781 80.474L56.2721 79.057Z" fill="#1F0E07"/>
<path d="M54.5281 26.74C52.3451 26.74 50.0581 26.423 48.3081 25.473C44.8971 23.622 43.1971 22.262 42.1421 19.096C41.0861 15.925 42.1941 13.179 42.2421 13.063C42.2941 12.938 42.4381 12.88 42.5621 12.931C42.6861 12.982 42.7451 13.125 42.6951 13.25C42.6831 13.277 41.6091 15.95 42.6061 18.942C43.6091 21.952 45.2481 23.2569 48.5411 25.0439C51.9891 26.9159 57.6641 26.219 60.1841 25.589C63.2221 24.83 65.4271 25.1969 68.2151 25.6619L68.3201 25.6799C68.4531 25.7019 68.5431 25.828 68.5211 25.961C68.4991 26.094 68.3701 26.1829 68.2401 26.1619L68.1351 26.144C65.4011 25.687 63.2411 25.327 60.3031 26.063C58.9821 26.394 56.8111 26.74 54.5281 26.74Z" fill="#592B14"/>
<path d="M54.7461 23.282C54.1431 23.282 53.5021 23.24 52.8311 23.137C49.1061 22.563 45.8351 19.236 45.6961 19.094C45.6021 18.997 45.6041 18.843 45.7021 18.749C45.7981 18.655 45.9541 18.658 46.0471 18.754C46.0801 18.787 49.3451 22.106 52.9061 22.654C56.4751 23.204 59.2621 21.93 59.2901 21.918C59.4121 21.859 59.5571 21.914 59.6141 22.036C59.6711 22.158 59.6181 22.303 59.4961 22.36C59.3981 22.406 57.4811 23.282 54.7461 23.282Z" fill="#592B14"/>
<path d="M36.0491 131.054C35.7941 114.784 35.5521 94.566 35.4361 90.829C35.4261 90.833 35.4161 90.837 35.4061 90.841C35.0841 90.966 34.7651 91.09 34.4481 91.212C34.3501 91.25 34.2531 91.286 34.1561 91.324C33.9311 91.41 33.7061 91.496 33.4851 91.58C33.3651 91.625 33.2491 91.669 33.1311 91.713C32.9321 91.788 32.7351 91.862 32.5411 91.934C32.4221 91.978 32.3061 92.021 32.1891 92.064C32.0061 92.132 31.8251 92.198 31.6471 92.262C31.5241 92.307 31.4031 92.35 31.2821 92.394C31.1141 92.454 30.9491 92.513 30.7871 92.57C30.6731 92.61 30.5591 92.65 30.4481 92.688C30.2831 92.745 30.1251 92.799 29.9681 92.852C29.8691 92.885 29.7691 92.92 29.6741 92.951C29.5101 93.005 29.3561 93.055 29.2031 93.103C29.1241 93.128 29.0411 93.156 28.9651 93.179C28.7441 93.248 28.5341 93.311 28.3401 93.366C27.7051 93.552 27.2361 93.649 26.9621 93.649C24.6951 93.649 8.55508 96.678 6.16208 99.071C3.76808 101.465 2.75208 114.068 2.75208 114.068C2.75208 114.068 13.6921 125.469 36.0491 131.054Z" fill="#1A2E40"/>
<path d="M91.9051 92.8491C91.5441 92.7281 91.1621 92.5951 90.7621 92.4531C90.7041 92.4321 90.6461 92.4111 90.5871 92.3901C90.1681 92.2401 89.7341 92.0821 89.2831 91.9151C89.2761 91.9121 89.2691 91.9101 89.2621 91.9071C88.7791 91.7271 88.2821 91.5401 87.7751 91.3461C86.7741 95.7081 85.6371 116.456 84.9231 131.468C108.184 126.055 119.114 114.07 119.114 114.07C119.114 114.07 118.108 101.467 115.714 99.0731C113.32 96.6791 97.1801 93.6511 94.9141 93.6511C94.5821 93.6511 93.9371 93.4951 93.0871 93.2311C92.7741 93.1361 92.4251 93.0231 92.0601 92.9021C92.0071 92.8831 91.9581 92.8661 91.9051 92.8491Z" fill="#1A2E40"/>
<path d="M28.328 128.766C33.83 130.666 40.224 132.277 47.536 133.207C46.036 123.359 43.6071 107.762 43.3181 106.478C42.8301 104.26 41.9011 91.5791 41.6671 88.3251C37.4171 90.0741 31.242 92.5461 28.341 93.3661C28.154 95.5781 28.232 115.293 28.328 128.766Z" fill="#34495E"/>
<path d="M75.6631 133.147C82.2541 132.275 88.0561 130.847 93.1041 129.154C93.2061 115.574 93.2891 95.293 93.0861 93.23C89.9201 92.273 83.8341 89.82 79.7791 88.15C79.5641 91.091 78.6071 104.222 78.1081 106.479C77.8211 107.759 76.5031 123.295 75.6631 133.147Z" fill="#34495E"/>
<path d="M99.9541 112.11C99.9511 112.11 99.9491 112.11 99.9461 112.11C99.8101 112.106 99.7051 111.993 99.7091 111.858C99.8041 108.921 101.904 103.229 101.993 102.988C102.04 102.862 102.183 102.796 102.307 102.844C102.434 102.891 102.498 103.032 102.451 103.158C102.429 103.216 100.289 109.017 100.197 111.874C100.193 112.005 100.086 112.11 99.9541 112.11Z" fill="#34495E"/>
<path d="M17.9801 112.11C17.8591 112.11 17.7541 112.02 17.7381 111.897C17.1811 107.626 15.4981 103.013 15.4821 102.968C15.4351 102.841 15.5001 102.701 15.6271 102.654C15.7551 102.609 15.8931 102.673 15.9401 102.799C15.9571 102.846 17.6581 107.508 18.2231 111.834C18.2401 111.968 18.1461 112.09 18.0121 112.108C18.0011 112.109 17.9911 112.11 17.9801 112.11Z" fill="#34495E"/>
</g>
</svg>
