<svg width="125" height="125" viewBox="0 0 125 125" fill="none" xmlns="http://www.w3.org/2000/svg">
<path d="M62.165 124.33C96.4978 124.33 124.33 96.4978 124.33 62.165C124.33 27.8322 96.4978 0 62.165 0C27.8322 0 0 27.8322 0 62.165C0 96.4978 27.8322 124.33 62.165 124.33Z" fill="#D14040"/>
<mask id="mask0_12_15" style="mask-type:luminance" maskUnits="userSpaceOnUse" x="0" y="0" width="125" height="125">
<path d="M62.165 124.33C96.4978 124.33 124.33 96.4978 124.33 62.165C124.33 27.8322 96.4978 0 62.165 0C27.8322 0 0 27.8322 0 62.165C0 96.4978 27.8322 124.33 62.165 124.33Z" fill="white"/>
</mask>
<g mask="url(#mask0_12_15)">
<path d="M110.574 113.943C110.574 113.943 85.49 133.943 57.874 133.943C30.259 133.943 8.14501 113.943 8.14501 113.943C7.01201 106.381 12.678 95.4189 16.088 93.5239C18.237 92.3319 29.317 91.1299 37.592 89.9869C42.409 89.3229 46.277 88.6679 46.903 88.0429C48.613 86.3429 48.046 73.8569 48.046 73.8569H70.673C70.673 73.8569 70.106 86.3429 71.806 88.0429C72.441 88.6679 76.31 89.3229 81.127 89.9869H81.137C89.422 91.1399 100.482 92.3319 102.631 93.5239C106.041 95.4189 111.708 106.381 110.574 113.943Z" fill="#EAADA9"/>
<path d="M48.042 73.8579C48.042 73.8579 48.241 78.2309 48.05 82.1529C50.828 84.7759 54.96 87.7249 59.136 87.2209C62.759 86.7839 67.155 84.4269 70.67 82.1609C70.479 78.2369 70.678 73.8579 70.678 73.8579H48.042Z" fill="#E2797F"/>
<path d="M40.233 131.347C45.709 132.921 51.65 133.943 57.875 133.943C64.294 133.943 70.571 132.855 76.434 131.196L76.38 101.978C53.445 109.168 42.25 100.431 42.25 100.431L40.233 131.347Z" fill="#B6BA2C"/>
<path d="M59.4591 107.481C52.8071 107.481 47.8551 105.977 47.7801 105.954C47.6511 105.914 47.5791 105.777 47.6191 105.648C47.6591 105.519 47.7961 105.447 47.9251 105.487C48.0371 105.522 59.2411 108.922 70.5661 105.393C70.6941 105.354 70.8321 105.425 70.8721 105.554C70.9121 105.683 70.8401 105.82 70.7111 105.86C66.7991 107.078 62.9011 107.481 59.4591 107.481Z" fill="#7A7D1D"/>
<path d="M79.9989 85.708C80.3769 85.708 81.8899 86.464 83.0249 88.229C84.1599 89.994 84.7899 93.019 84.7899 93.019C84.7899 93.019 77.6039 95.036 75.7129 94.028C73.8219 93.019 71.1749 92.767 72.5609 90.876C73.9479 88.986 79.9989 85.708 79.9989 85.708Z" fill="#1A2E40"/>
<path d="M79.243 80.193C79.243 80.193 79.621 81.233 79.999 83.313C80.377 85.393 80.755 85.771 78.014 87.568C75.273 89.365 73.192 90.215 71.301 89.364C69.41 88.513 66.857 85.866 67.803 84.069C68.749 82.273 68.559 81.422 71.774 80.193C74.988 78.964 79.243 80.193 79.243 80.193Z" fill="#B6BA2C"/>
<path d="M90.683 52.301C90.683 52.301 89.265 63.08 88.225 66.105C87.185 69.131 84.254 69.982 83.498 72.534C82.742 75.087 82.458 76.6 80.945 77.923C79.432 79.247 81.039 79.719 77.919 81.327C74.799 82.934 73.192 83.691 69.977 82.84C66.762 81.989 64.871 79.72 64.02 76.032C63.169 72.344 62.223 66.388 64.587 61.85C66.951 57.312 69.409 55.137 73.096 52.773C76.783 50.409 77.634 48.802 82.835 48.896C88.036 48.992 90.683 52.301 90.683 52.301Z" fill="#1A2E40"/>
<path d="M83.403 55.232C83.403 55.232 86.996 51.923 89.643 54.665C92.29 57.407 86.523 64.687 81.89 66.105L83.403 55.232Z" fill="#EAADA9"/>
<path d="M83.088 60.361C83.048 60.361 83.006 60.351 82.969 60.33C82.851 60.264 82.809 60.115 82.875 59.998C85.308 55.645 88.486 55.406 88.62 55.398C88.767 55.39 88.87 55.492 88.878 55.627C88.887 55.761 88.785 55.878 88.65 55.886C88.62 55.888 85.595 56.132 83.301 60.237C83.256 60.317 83.173 60.361 83.088 60.361Z" fill="#E2797F"/>
<path d="M88.193 58.533C88.156 58.533 88.119 58.525 88.084 58.507C88.067 58.499 86.344 57.641 85.451 57.522C85.317 57.504 85.223 57.381 85.241 57.247C85.259 57.113 85.386 57.021 85.516 57.037C86.49 57.167 88.229 58.033 88.303 58.069C88.424 58.13 88.472 58.276 88.412 58.397C88.369 58.484 88.283 58.533 88.193 58.533Z" fill="#E2797F"/>
<path d="M36.482 55.232C36.482 55.232 32.889 51.923 30.242 54.665C27.595 57.407 33.362 64.687 37.995 66.105L36.482 55.232Z" fill="#EAADA9"/>
<path d="M36.797 60.361C36.712 60.361 36.629 60.316 36.584 60.236C34.29 56.132 31.265 55.887 31.235 55.885C31.101 55.876 30.998 55.76 31.007 55.626C31.016 55.492 31.121 55.386 31.265 55.397C31.399 55.405 34.578 55.644 37.011 59.997C37.077 60.115 37.035 60.264 36.917 60.329C36.879 60.351 36.838 60.361 36.797 60.361Z" fill="#E2797F"/>
<path d="M31.691 58.533C31.602 58.533 31.515 58.483 31.473 58.398C31.413 58.277 31.462 58.131 31.582 58.07C31.655 58.033 33.395 57.168 34.369 57.038C34.5 57.02 34.626 57.114 34.644 57.248C34.662 57.382 34.568 57.505 34.434 57.523C33.539 57.642 31.817 58.499 31.8 58.508C31.765 58.525 31.728 58.533 31.691 58.533Z" fill="#E2797F"/>
<path d="M33.4819 40.7659C33.4819 40.7659 35.5619 62.8899 38.3979 69.3199C41.2339 75.7499 53.9039 84.4479 58.0639 84.2589C62.2239 84.0699 75.6499 76.5059 79.0539 71.9679C82.4579 67.4299 86.0509 51.5459 85.4829 42.2799C84.9159 33.0139 73.0029 19.2099 63.7369 18.6429C54.4709 18.0759 46.3399 19.3989 42.3689 22.9919C38.3979 26.5839 34.0489 34.5259 33.4819 40.7659Z" fill="#EAADA9"/>
<path d="M57.6541 64.0229L60.2381 64.212C60.2381 64.212 59.2301 64.7789 58.7251 64.7479C58.2221 64.7169 57.6541 64.0229 57.6541 64.0229Z" fill="#E2797F"/>
<path d="M68.661 52.1529C68.661 53.2169 68.269 54.0789 67.786 54.0789C67.303 54.0789 66.911 53.2159 66.911 52.1529C66.911 51.0889 67.303 50.2269 67.786 50.2269C68.27 50.2269 68.661 51.0899 68.661 52.1529Z" fill="#1A2E40"/>
<path opacity="0.2" d="M79.5269 62.1009C79.5269 64.4319 76.6829 66.3219 73.1759 66.3219C69.6679 66.3219 66.825 64.4319 66.825 62.1009C66.825 59.7699 69.6689 57.8799 73.1759 57.8799C76.6829 57.8789 79.5269 59.7689 79.5269 62.1009Z" fill="#EAADA9"/>
<path opacity="0.2" d="M51.447 62.1009C51.447 64.4319 48.604 66.3219 45.096 66.3219C41.588 66.3219 38.745 64.4319 38.745 62.1009C38.745 59.7699 41.588 57.8799 45.096 57.8799C48.604 57.8789 51.447 59.7689 51.447 62.1009Z" fill="#EAADA9"/>
<path d="M58.959 73.101C56.145 73.101 54.337 71.178 54.31 71.149C54.148 70.971 54.16 70.697 54.337 70.534C54.513 70.371 54.789 70.383 54.952 70.559C55.094 70.712 58.497 74.289 63.278 70.512C63.467 70.363 63.741 70.395 63.89 70.584C64.039 70.773 64.007 71.047 63.818 71.195C62.013 72.623 60.361 73.101 58.959 73.101Z" fill="#DB2E3A"/>
<path d="M66.29 50.0559C66.218 50.0559 66.146 50.0239 66.098 49.9629C66.014 49.8579 66.032 49.7039 66.137 49.6209C66.157 49.6059 68.065 48.1189 69.972 49.4419L70.268 49.2099C70.372 49.1269 70.527 49.1449 70.611 49.2509C70.694 49.3569 70.676 49.5099 70.57 49.5939L70.129 49.9409C70.042 50.0089 69.918 50.0099 69.829 49.9419C68.181 48.6619 66.513 49.9479 66.443 50.0029C66.397 50.0379 66.343 50.0559 66.29 50.0559Z" fill="#1A2E40"/>
<path d="M64.656 44.7339C65.406 44.3199 66.154 44.0319 66.943 43.7989C67.728 43.5719 68.538 43.4299 69.355 43.3799C70.171 43.3209 70.998 43.3879 71.798 43.5579C72.607 43.7039 73.364 44.0389 74.092 44.3979C74.211 44.4569 74.26 44.6009 74.201 44.7199C74.144 44.8359 74.005 44.8859 73.888 44.8339L73.868 44.8249C73.167 44.5129 72.45 44.2219 71.689 44.1139C70.937 43.9829 70.166 43.9469 69.404 44.0299C68.643 44.1029 67.889 44.2639 67.16 44.5029C66.439 44.7419 65.712 45.0589 65.087 45.4339L65.066 45.4469C64.871 45.5639 64.619 45.5009 64.502 45.3059C64.385 45.1109 64.448 44.8589 64.643 44.7419C64.647 44.7389 64.652 44.7359 64.656 44.7339Z" fill="#1A2E40"/>
<path d="M49.767 52.1529C49.767 53.2169 50.159 54.0789 50.642 54.0789C51.125 54.0789 51.516 53.2159 51.516 52.1529C51.516 51.0889 51.124 50.2269 50.642 50.2269C50.159 50.2269 49.767 51.0899 49.767 52.1529Z" fill="#1A2E40"/>
<path d="M52.139 50.0559C52.086 50.0559 52.033 50.0379 51.988 50.0029C51.917 49.9469 50.252 48.6619 48.602 49.9409C48.514 50.0099 48.389 50.0099 48.302 49.9409L47.861 49.5939C47.755 49.5099 47.737 49.3569 47.82 49.2509C47.904 49.1449 48.058 49.1279 48.163 49.2099L48.459 49.4419C50.363 48.1189 52.273 49.6049 52.293 49.6209C52.398 49.7039 52.416 49.8579 52.332 49.9629C52.282 50.0239 52.21 50.0559 52.139 50.0559Z" fill="#1A2E40"/>
<path d="M53.342 45.4329C52.718 45.0579 51.991 44.7409 51.269 44.5019C50.54 44.2629 49.786 44.1029 49.025 44.0289C48.263 43.9459 47.492 43.9819 46.74 44.1129C45.979 44.2199 45.262 44.5109 44.561 44.8239L44.541 44.8329C44.42 44.8869 44.278 44.8329 44.224 44.7109C44.171 44.5929 44.222 44.4549 44.337 44.3979C45.066 44.0389 45.822 43.7029 46.631 43.5579C47.431 43.3889 48.257 43.3209 49.073 43.3799C49.89 43.4289 50.7 43.5719 51.485 43.7989C52.274 44.0319 53.022 44.3199 53.772 44.7339C53.971 44.8439 54.043 45.0939 53.933 45.2919C53.823 45.4909 53.573 45.5629 53.374 45.4529C53.37 45.4509 53.367 45.4489 53.363 45.4469L53.342 45.4329Z" fill="#1A2E40"/>
<path d="M52.013 22.676C52.013 22.676 50.374 26.584 54.03 30.24C57.686 33.896 62.224 33.392 64.115 37.3C66.006 41.208 66.006 44.738 70.67 45.746C75.334 46.754 75.586 45.116 77.982 48.393C80.377 51.671 79.873 52.805 82.52 53.814C85.167 54.822 89.454 54.949 90.462 54.192C91.471 53.436 96.387 46.502 94.496 41.207C92.605 35.912 88.571 37.299 89.075 30.744C89.579 24.189 92.101 23.054 88.823 19.146C85.545 15.238 82.268 17.255 79.368 13.095C76.468 8.93497 74.577 6.79197 69.913 5.65697C65.249 4.52197 58.315 3.13597 54.407 10.699C54.407 10.699 49.491 6.91697 42.809 9.81697C36.127 12.717 36.758 14.986 32.976 20.028C29.194 25.07 25.286 24.314 25.286 29.861C25.286 35.408 27.933 35.156 26.421 40.702C24.908 46.249 23.269 47.762 26.169 51.291C29.068 54.821 31.085 54.064 31.968 58.351C32.85 62.637 33.733 64.654 35.876 66.419C38.019 68.184 38.775 67.932 38.775 67.932C38.775 67.932 35.371 60.872 36.506 57.973C37.641 55.074 39.279 54.443 38.775 51.418C38.271 48.392 35.245 47.888 37.767 43.35C40.288 38.812 42.053 39.568 43.692 36.669C45.331 33.77 44.574 33.644 46.087 29.357C47.601 25.071 48.987 25.701 52.013 22.676Z" fill="#1A2E40"/>
<path d="M69.6621 41.2C69.6271 41.2 69.59 41.192 69.556 41.176C67.712 40.294 67.358 38.652 66.983 36.914C66.737 35.776 66.4841 34.598 65.7991 33.523C64.6111 31.656 62.918 31.105 60.774 30.407C59.838 30.103 58.8711 29.788 57.8381 29.328C54.3061 27.758 54.9161 23.315 54.9221 23.27C54.9421 23.136 55.0641 23.042 55.1991 23.064C55.3331 23.083 55.4251 23.207 55.4061 23.341C55.4001 23.382 54.846 27.463 58.037 28.881C59.047 29.33 60.002 29.641 60.926 29.942C63.075 30.641 64.9301 31.245 66.2121 33.26C66.9431 34.41 67.2061 35.63 67.4611 36.811C67.8241 38.499 68.1391 39.957 69.7671 40.735C69.8891 40.793 69.9401 40.939 69.8821 41.061C69.8401 41.149 69.7531 41.2 69.6621 41.2Z" fill="#34495E"/>
<path d="M68.275 32.627C68.192 32.627 68.111 32.584 68.065 32.507C66.114 29.214 61.302 27.334 61.254 27.316C61.128 27.267 61.066 27.126 61.114 27C61.163 26.875 61.303 26.812 61.43 26.86C61.634 26.939 66.449 28.821 68.486 32.258C68.555 32.374 68.516 32.524 68.401 32.592C68.361 32.616 68.318 32.627 68.275 32.627Z" fill="#34495E"/>
<path d="M30.834 35.7779C30.801 35.7779 30.767 35.771 30.735 35.757C30.612 35.702 30.556 35.558 30.611 35.435C30.823 34.957 30.69 34.1339 30.535 33.1799C30.358 32.0909 30.138 30.737 30.34 29.323C30.657 27.105 31.731 26.401 33.511 25.235C33.953 24.945 34.442 24.625 34.978 24.242C37.543 22.41 40.168 16.9529 40.194 16.8979C40.252 16.7759 40.397 16.725 40.52 16.783C40.642 16.841 40.693 16.987 40.635 17.109C40.526 17.338 37.93 22.7339 35.262 24.6399C34.72 25.0269 34.225 25.351 33.778 25.644C32.057 26.772 31.109 27.393 30.823 29.392C30.632 30.732 30.836 31.991 31.016 33.102C31.191 34.175 31.328 35.0229 31.056 35.6339C31.017 35.7239 30.928 35.7779 30.834 35.7779Z" fill="#34495E"/>
<path d="M45.832 104.519C45.858 104.066 45.884 103.616 45.91 103.172C45.916 103.075 45.921 102.978 45.927 102.881C45.955 102.409 45.983 101.943 46.011 101.484C46.015 101.411 46.02 101.339 46.024 101.267C46.382 95.375 46.719 90.599 46.848 88.807C46.849 88.788 46.85 88.777 46.852 88.759C46.885 88.298 46.904 88.043 46.904 88.043C46.904 88.043 39.342 88.414 38.209 89.176C38.073 89.264 37.859 89.556 37.596 89.983C34.517 90.41 31.059 90.844 27.814 91.281C27.646 91.304 27.482 91.326 27.315 91.349C26.982 91.394 26.649 91.44 26.322 91.485C26.006 91.529 25.698 91.573 25.389 91.617C25.205 91.643 25.019 91.669 24.838 91.695C24.473 91.748 24.119 91.8 23.766 91.853C23.643 91.871 23.518 91.89 23.397 91.908C23.017 91.966 22.65 92.023 22.288 92.081C22.204 92.095 22.118 92.108 22.034 92.121C21.66 92.182 21.301 92.242 20.951 92.303C20.887 92.314 20.82 92.325 20.757 92.337C20.395 92.401 20.052 92.464 19.721 92.528C19.681 92.536 19.639 92.544 19.599 92.551C19.259 92.617 18.94 92.683 18.638 92.749C18.612 92.755 18.585 92.76 18.559 92.766C18.253 92.834 17.971 92.901 17.708 92.969C17.691 92.973 17.673 92.978 17.656 92.982C17.394 93.05 17.158 93.118 16.945 93.187C16.932 93.191 16.918 93.196 16.905 93.2C16.696 93.268 16.515 93.336 16.359 93.404C16.353 93.407 16.344 93.409 16.338 93.412C16.255 93.449 16.154 93.487 16.088 93.524C12.678 95.419 7.01201 106.381 8.14501 113.943C8.14501 113.943 23.674 127.978 44.952 132.531C44.731 126.083 45.266 114.329 45.832 104.519Z" fill="white"/>
<path d="M102.631 93.523C102.101 93.229 101.026 92.935 99.587 92.642L99.589 92.641C95.19 91.742 87.367 90.849 81.125 89.984C80.862 89.556 80.648 89.264 80.511 89.176C79.378 88.414 71.806 88.043 71.806 88.043C71.806 88.043 71.819 88.222 71.843 88.547C71.845 88.58 71.848 88.616 71.85 88.652C71.855 88.722 71.861 88.8 71.867 88.881C71.873 88.971 71.881 89.078 71.888 89.182C71.912 89.522 71.941 89.934 71.975 90.411C71.987 90.576 71.998 90.738 72.01 90.918C72.017 91.02 72.025 91.129 72.032 91.236C72.043 91.4 72.055 91.57 72.067 91.745C72.078 91.902 72.089 92.065 72.1 92.23C72.115 92.448 72.13 92.67 72.146 92.902C72.152 92.996 72.159 93.089 72.165 93.185C72.184 93.47 72.204 93.77 72.225 94.074C72.232 94.177 72.239 94.276 72.246 94.382C72.3 95.198 72.358 96.074 72.418 97.003C72.421 97.042 72.423 97.083 72.426 97.122C72.454 97.562 72.483 98.013 72.512 98.474C72.515 98.515 72.517 98.556 72.52 98.597C73.165 108.814 73.983 123.898 73.781 131.899C94.425 126.808 110.573 113.944 110.573 113.944C111.708 106.381 106.041 95.419 102.631 93.523Z" fill="white"/>
<path d="M31.023 113.371C31.019 113.371 31.015 113.371 31.012 113.371C30.877 113.365 30.773 113.25 30.78 113.116C30.933 109.901 32.675 106.108 33.4 104.658C32.71 104.905 31.639 105.167 31.057 104.684C30.308 104.062 33.523 97.355 36.353 91.838C36.416 91.719 36.562 91.67 36.682 91.732C36.802 91.794 36.85 91.941 36.788 92.061C33.957 97.58 31.168 103.684 31.399 104.346C31.887 104.737 33.346 104.185 33.817 103.958C33.912 103.914 34.027 103.933 34.1 104.009C34.173 104.086 34.188 104.201 34.138 104.294C34.111 104.343 31.452 109.271 31.268 113.139C31.261 113.269 31.153 113.371 31.023 113.371Z" fill="#EBCACA"/>
<path d="M87.5631 112.363C87.4451 112.363 87.3411 112.277 87.3221 112.156C86.8291 109.01 84.8511 104.453 84.8311 104.407C84.7921 104.318 84.8101 104.216 84.8741 104.145C84.9391 104.073 85.0391 104.047 85.1311 104.078C85.8051 104.301 86.8851 104.579 87.1881 104.507C87.2111 104.501 87.2291 104.492 87.2461 104.462C87.3341 104.305 87.2751 103.911 87.2041 103.682C85.8411 99.718 81.5281 91.388 81.4851 91.304C81.4231 91.184 81.4691 91.037 81.5891 90.975C81.7101 90.912 81.8561 90.96 81.9181 91.079C81.9621 91.163 86.2921 99.525 87.6681 103.53C87.7101 103.662 87.8931 104.307 87.6721 104.7C87.5911 104.844 87.4651 104.941 87.3071 104.981C86.9191 105.076 86.0581 104.865 85.4851 104.699C86.0131 105.971 87.3921 109.45 87.8051 112.081C87.8261 112.214 87.7351 112.339 87.6011 112.36C87.5881 112.362 87.5761 112.363 87.5631 112.363Z" fill="#EBCACA"/>
<path d="M21.137 113.233C21.12 113.233 21.103 113.231 21.086 113.228C20.954 113.2 20.869 113.07 20.898 112.938C21.53 109.957 23.073 105.224 23.088 105.177C23.13 105.049 23.267 104.978 23.396 105.02C23.524 105.062 23.594 105.2 23.552 105.328C23.536 105.375 22.002 110.083 21.375 113.038C21.351 113.155 21.249 113.233 21.137 113.233Z" fill="#EBCACA"/>
<path d="M99.588 113.143C99.484 113.143 99.389 113.077 99.355 112.973C98.635 110.72 97.274 106.005 97.26 105.958C97.223 105.828 97.297 105.693 97.427 105.656C97.555 105.616 97.692 105.694 97.729 105.823C97.743 105.87 99.101 110.579 99.82 112.825C99.861 112.953 99.79 113.091 99.662 113.132C99.638 113.139 99.613 113.143 99.588 113.143Z" fill="#EBCACA"/>
</g>
</svg>
