<svg width="125" height="125" viewBox="0 0 125 125" fill="none" xmlns="http://www.w3.org/2000/svg">
<path d="M62.165 124.33C96.4978 124.33 124.33 96.4978 124.33 62.165C124.33 27.8322 96.4978 0 62.165 0C27.8322 0 0 27.8322 0 62.165C0 96.4978 27.8322 124.33 62.165 124.33Z" fill="#E69325"/>
<mask id="mask0_12_137" style="mask-type:luminance" maskUnits="userSpaceOnUse" x="0" y="0" width="125" height="125">
<path d="M62.165 124.33C96.4978 124.33 124.33 96.4978 124.33 62.165C124.33 27.8322 96.4978 0 62.165 0C27.8322 0 0 27.8322 0 62.165C0 96.4978 27.8322 124.33 62.165 124.33Z" fill="white"/>
</mask>
<g mask="url(#mask0_12_137)">
<path d="M33.2729 38.8471C33.2729 38.8471 34.296 48.2171 35.462 56.0551C36.628 63.8941 38.1409 82.4251 34.8319 89.8941C31.5229 97.3631 84.3749 93.1091 86.5499 92.1631C88.7249 91.2171 86.1719 83.3701 86.5499 74.5771C86.9279 65.7841 91.396 43.2591 91.396 43.2591L62.3339 34.6781L33.2729 38.8471Z" fill="#1A2E40"/>
<path d="M72.878 70.4811C72.878 70.4811 72.311 82.9611 74.012 84.6631C75.714 86.3651 101.431 88.2561 104.835 90.1471C108.239 92.0381 113.912 103.006 112.777 110.569C112.777 110.569 96.004 130.569 62.597 130.569C29.19 130.569 10.343 110.569 10.343 110.569C9.20798 103.005 14.881 92.0381 18.285 90.1471C21.689 88.2561 47.406 86.3651 49.108 84.6631C50.81 82.9611 50.242 70.4811 50.242 70.4811H72.878Z" fill="#F3D4A8"/>
<path d="M104.835 90.147C102.542 88.873 90.13 87.599 81.748 86.383C80.671 91.064 77.992 95.392 74.132 98.262C68.133 102.722 59.583 103.457 52.911 100.085C47.541 97.372 43.595 92.1 42.274 86.249C33.911 87.505 20.662 88.825 18.285 90.146C14.881 92.037 9.20798 103.005 10.343 110.568C10.343 110.568 29.189 130.568 62.597 130.568C96.005 130.568 112.777 110.568 112.777 110.568C113.912 103.006 108.239 92.038 104.835 90.147Z" fill="white"/>
<path d="M50.2429 70.4811C50.2429 70.4811 50.4419 74.8541 50.2509 78.7761C53.0299 81.3991 57.1609 84.3481 61.3369 83.8441C64.9599 83.4071 69.3559 81.0501 72.8709 78.7841C72.6799 74.8601 72.8779 70.4811 72.8779 70.4811H50.2429Z" fill="#E2B670"/>
<path d="M26.984 108.04C26.973 108.04 26.963 108.039 26.951 108.038C26.818 108.02 26.723 107.898 26.741 107.764C27.369 102.998 31.131 93.679 31.169 93.585C31.22 93.459 31.362 93.398 31.487 93.451C31.612 93.502 31.673 93.644 31.622 93.769C31.584 93.863 27.845 103.124 27.226 107.828C27.21 107.951 27.105 108.04 26.984 108.04Z" fill="#EBCACA"/>
<path d="M93.1679 108.04C93.0579 108.04 92.9579 107.966 92.9309 107.854C91.4359 101.764 89.4849 94.3631 89.4649 94.2891C89.4309 94.1591 89.5079 94.0261 89.6389 93.9901C89.7719 93.9591 89.9029 94.0341 89.9379 94.1651C89.9579 94.2391 91.9099 101.644 93.4059 107.738C93.4379 107.869 93.3579 108.001 93.2269 108.034C93.2069 108.038 93.1869 108.04 93.1679 108.04Z" fill="#EBCACA"/>
<path d="M85.996 49.8701C85.996 49.8701 89.932 47.7271 91.467 50.3111C93.002 52.8951 90.667 62.9801 82.327 63.9891L85.996 49.8701Z" fill="#F3D4A8"/>
<path d="M84.595 56.9841C84.543 56.9841 84.4901 56.9681 84.4461 56.9331C84.3391 56.8511 84.319 56.6971 84.401 56.5911C86.931 53.3021 89.976 51.9101 90.105 51.8521C90.227 51.7971 90.373 51.8521 90.428 51.9751C90.483 52.0981 90.428 52.2421 90.305 52.2981C90.274 52.3121 87.239 53.7031 84.788 56.8891C84.741 56.9521 84.668 56.9841 84.595 56.9841Z" fill="#E2B670"/>
<path d="M89.7011 55.6611C89.6481 55.6611 89.5961 55.6451 89.5521 55.6101C89.5391 55.6001 88.1991 54.5741 87.0781 54.3971C86.9451 54.3761 86.8541 54.2511 86.8751 54.1171C86.8961 53.9831 87.0211 53.8951 87.1551 53.9141C88.4001 54.1111 89.7921 55.1771 89.8511 55.2221C89.9581 55.3051 89.9771 55.4591 89.8951 55.5651C89.8461 55.6291 89.7741 55.6611 89.7011 55.6611Z" fill="#E2B670"/>
<path d="M37.875 49.8701C37.875 49.8701 33.939 47.7271 32.404 50.3111C30.87 52.8951 33.205 62.9801 41.544 63.9891L37.875 49.8701Z" fill="#F3D4A8"/>
<path d="M39.275 56.9841C39.202 56.9841 39.129 56.9521 39.081 56.8891C36.63 53.7031 33.595 52.3121 33.565 52.2981C33.442 52.2431 33.387 52.0981 33.442 51.9751C33.498 51.8521 33.643 51.7981 33.765 51.8521C33.893 51.9101 36.938 53.3021 39.468 56.5911C39.55 56.6981 39.53 56.8511 39.423 56.9331C39.379 56.9681 39.327 56.9841 39.275 56.9841Z" fill="#E2B670"/>
<path d="M34.17 55.6611C34.097 55.6611 34.025 55.6281 33.977 55.5661C33.895 55.4591 33.914 55.3061 34.021 55.2221C34.08 55.1771 35.472 54.1111 36.716 53.9141C36.847 53.8951 36.974 53.9831 36.996 54.1171C37.017 54.2511 36.926 54.3761 36.793 54.3971C35.67 54.5741 34.333 55.5991 34.32 55.6101C34.275 55.6451 34.222 55.6611 34.17 55.6611Z" fill="#E2B670"/>
<path d="M35.682 37.3891C35.682 37.3891 37.762 59.5131 40.598 65.9431C43.434 72.3721 56.104 81.0711 60.264 80.8821C64.424 80.6931 77.85 73.1291 81.254 68.5911C84.658 64.0531 88.251 48.1691 87.683 38.9031C87.116 29.6371 75.203 15.8331 65.937 15.2661C56.671 14.6991 48.54 16.0221 44.569 19.6151C40.599 23.2071 36.25 31.1491 35.682 37.3891Z" fill="#F3D4A8"/>
<path d="M60.0129 62.2001L62.5969 62.3891C62.5969 62.3891 61.5889 62.9561 61.0839 62.9251C60.5799 62.8931 60.0129 62.2001 60.0129 62.2001Z" fill="#E2797F"/>
<path d="M71.02 50.3301C71.02 51.3941 70.629 52.2561 70.145 52.2561C69.662 52.2561 69.27 51.3941 69.27 50.3301C69.27 49.2661 69.662 48.4041 70.145 48.4041C70.628 48.4041 71.02 49.2661 71.02 50.3301Z" fill="#1A2E40"/>
<path opacity="0.35" d="M81.885 60.277C81.885 62.608 79.041 64.498 75.534 64.498C72.026 64.498 69.183 62.608 69.183 60.277C69.183 57.946 72.027 56.056 75.534 56.056C79.041 56.056 81.885 57.946 81.885 60.277Z" fill="#EEC19F"/>
<path opacity="0.35" d="M53.806 60.277C53.806 62.608 50.962 64.498 47.455 64.498C43.947 64.498 41.104 62.608 41.104 60.277C41.104 57.946 43.948 56.056 47.455 56.056C50.962 56.056 53.806 57.946 53.806 60.277Z" fill="#EEC19F"/>
<path d="M61.317 71.278C58.503 71.278 56.695 69.355 56.668 69.326C56.506 69.15 56.518 68.875 56.695 68.712C56.871 68.551 57.147 68.562 57.31 68.738C57.452 68.892 60.854 72.469 65.636 68.691C65.825 68.542 66.099 68.574 66.248 68.763C66.397 68.952 66.365 69.226 66.176 69.375C64.371 70.8 62.719 71.278 61.317 71.278Z" fill="#FF8D8D"/>
<path d="M68.649 48.2321C68.577 48.2321 68.505 48.2001 68.457 48.1391C68.374 48.0331 68.391 47.8801 68.496 47.7971C68.516 47.7811 70.423 46.2951 72.33 47.6181L72.625 47.3861C72.73 47.3031 72.884 47.3191 72.968 47.4271C73.051 47.5331 73.033 47.6871 72.927 47.7691L72.486 48.1161C72.398 48.1871 72.273 48.1861 72.185 48.1171C70.535 46.8351 68.87 48.1231 68.799 48.1791C68.755 48.2151 68.702 48.2321 68.649 48.2321Z" fill="#1A2E40"/>
<path d="M67.0139 42.9101C67.7639 42.4961 68.512 42.2081 69.301 41.9751C70.086 41.7481 70.896 41.6061 71.713 41.5561C72.529 41.4971 73.356 41.5641 74.155 41.7341C74.964 41.8801 75.721 42.2161 76.45 42.5741C76.569 42.6331 76.618 42.7771 76.559 42.8961C76.502 43.0121 76.364 43.0621 76.246 43.0091L76.226 43.0001C75.525 42.6881 74.808 42.3971 74.047 42.2901C73.295 42.1591 72.524 42.1231 71.762 42.2061C71 42.2801 70.246 42.4401 69.518 42.6791C68.797 42.9181 68.0699 43.2351 67.4449 43.6101L67.424 43.6231C67.229 43.7401 66.977 43.6771 66.86 43.4821C66.743 43.2871 66.8059 43.0351 67.0009 42.9181C67.0049 42.9161 67.0109 42.9131 67.0139 42.9101Z" fill="#1A2E40"/>
<path d="M52.126 50.3301C52.126 51.3941 52.518 52.2561 53.001 52.2561C53.484 52.2561 53.875 51.3941 53.875 50.3301C53.875 49.2661 53.484 48.4041 53.001 48.4041C52.518 48.4041 52.126 49.2661 52.126 50.3301Z" fill="#1A2E40"/>
<path d="M54.497 48.232C54.444 48.232 54.391 48.2151 54.346 48.1791C54.275 48.1241 52.609 46.837 50.96 48.117C50.872 48.186 50.747 48.187 50.659 48.116L50.218 47.7691C50.112 47.6861 50.094 47.532 50.177 47.427C50.26 47.32 50.415 47.3041 50.52 47.3861L50.815 47.6181C52.724 46.2961 54.63 47.781 54.649 47.797C54.754 47.881 54.772 48.034 54.688 48.139C54.641 48.201 54.569 48.232 54.497 48.232Z" fill="#1A2E40"/>
<path d="M55.7 43.6101C55.076 43.2351 54.349 42.9181 53.627 42.6791C52.898 42.4401 52.144 42.279 51.383 42.206C50.621 42.123 49.85 42.1591 49.098 42.2901C48.337 42.3971 47.62 42.6881 46.919 43.0001L46.899 43.0091C46.778 43.0631 46.636 43.009 46.582 42.887C46.529 42.769 46.58 42.6301 46.695 42.5741C47.424 42.2151 48.18 41.8791 48.99 41.7341C49.79 41.5651 50.616 41.4971 51.432 41.5561C52.249 41.6051 53.059 41.7481 53.844 41.9751C54.633 42.2091 55.381 42.4961 56.131 42.9101C56.33 43.0201 56.402 43.27 56.292 43.469C56.182 43.668 55.932 43.7401 55.734 43.6301C55.73 43.6281 55.727 43.6261 55.723 43.6231L55.7 43.6101Z" fill="#1A2E40"/>
<path d="M43.688 49.854C43.682 49.854 43.676 49.854 43.671 49.854L37.297 49.637C37.027 49.628 36.816 49.401 36.826 49.132C36.835 48.862 37.081 48.665 37.331 48.66L43.705 48.877C43.975 48.886 44.186 49.113 44.176 49.382C44.167 49.646 43.95 49.854 43.688 49.854Z" fill="#592B14"/>
<path d="M80.057 51.4291C79.848 51.4291 79.654 51.2941 79.589 51.0831C79.511 50.8251 79.656 50.5521 79.915 50.4731L86.96 48.3301C87.22 48.2531 87.491 48.3981 87.57 48.6551C87.648 48.9141 87.503 49.1861 87.245 49.2651L80.201 51.4081C80.152 51.4231 80.104 51.4291 80.057 51.4291Z" fill="#592B14"/>
<path d="M37.115 49.5281C37.115 49.5281 55.159 46.0241 63.196 29.9511C63.196 29.9511 67.463 46.3661 87.052 49.5281C87.052 49.5281 90.426 48.1591 91.561 42.5531C92.696 36.9481 91.277 9.05609 65.277 10.9471C65.277 10.9471 48.826 7.26008 39.843 18.5111C30.86 29.7621 32.118 44.4281 37.115 49.5281Z" fill="#1A2E40"/>
<path d="M41.544 43.505C41.446 43.505 41.353 43.446 41.316 43.349C41.268 43.223 41.33 43.082 41.456 43.033C41.56 42.993 51.984 38.903 58.044 29.814C58.119 29.703 58.272 29.673 58.383 29.746C58.495 29.82 58.526 29.972 58.451 30.085C52.302 39.306 41.738 43.448 41.632 43.489C41.603 43.5 41.573 43.505 41.544 43.505Z" fill="#34495E"/>
<path d="M46.8081 37.15C46.7201 37.15 46.6341 37.102 46.5911 37.018C46.5291 36.898 46.5761 36.751 46.6961 36.689C46.7261 36.673 49.7711 35.0761 52.2431 32.0031C52.3281 31.8991 52.4821 31.883 52.5861 31.967C52.6911 32.051 52.7081 32.205 52.6231 32.311C50.0831 35.466 47.0471 37.0571 46.9191 37.1231C46.8841 37.1421 46.8461 37.15 46.8081 37.15Z" fill="#34495E"/>
<path d="M81.885 44.2521C81.84 44.2521 81.795 44.2401 81.754 44.2141C71.271 37.5601 68.969 30.0931 68.947 30.0181C68.909 29.8891 68.983 29.7541 69.112 29.7161C69.239 29.6741 69.377 29.7511 69.415 29.8801C69.436 29.9531 71.7 37.2551 82.014 43.8021C82.128 43.8741 82.162 44.0251 82.089 44.1391C82.045 44.2121 81.966 44.2521 81.885 44.2521Z" fill="#34495E"/>
<path opacity="0.45" d="M51.85 59.6401C56.3406 59.6401 59.981 55.8936 59.981 51.2721C59.981 46.6505 56.3406 42.9041 51.85 42.9041C47.3594 42.9041 43.719 46.6505 43.719 51.2721C43.719 55.8936 47.3594 59.6401 51.85 59.6401Z" fill="white"/>
<path d="M51.85 59.6401C56.3406 59.6401 59.981 55.8936 59.981 51.2721C59.981 46.6505 56.3406 42.9041 51.85 42.9041C47.3594 42.9041 43.719 46.6505 43.719 51.2721C43.719 55.8936 47.3594 59.6401 51.85 59.6401Z" stroke="#592B14" stroke-width="0.977" stroke-miterlimit="10"/>
<path opacity="0.45" d="M71.768 59.6401C76.2586 59.6401 79.899 55.8936 79.899 51.2721C79.899 46.6505 76.2586 42.9041 71.768 42.9041C67.2773 42.9041 63.637 46.6505 63.637 51.2721C63.637 55.8936 67.2773 59.6401 71.768 59.6401Z" fill="white"/>
<path d="M71.768 59.6401C76.2586 59.6401 79.899 55.8936 79.899 51.2721C79.899 46.6505 76.2586 42.9041 71.768 42.9041C67.2773 42.9041 63.637 46.6505 63.637 51.2721C63.637 55.8936 67.2773 59.6401 71.768 59.6401Z" stroke="#592B14" stroke-width="0.977" stroke-miterlimit="10"/>
<path d="M63.3241 52.1351C61.5821 51.2641 60.2971 52.0951 60.2841 52.1041L59.7421 51.2911C59.8141 51.2441 61.5151 50.1391 63.7611 51.2611L63.3241 52.1351Z" fill="#592B14"/>
</g>
</svg>
