<svg width="125" height="125" viewBox="0 0 125 125" fill="none" xmlns="http://www.w3.org/2000/svg">
<path d="M62.165 124.45C96.4978 124.45 124.33 96.6178 124.33 62.285C124.33 27.9522 96.4978 0.119995 62.165 0.119995C27.8322 0.119995 0 27.9522 0 62.285C0 96.6178 27.8322 124.45 62.165 124.45Z" fill="#B6BA2C"/>
<mask id="mask0_12_657" style="mask-type:luminance" maskUnits="userSpaceOnUse" x="0" y="0" width="125" height="125">
<path d="M62.165 124.45C96.4978 124.45 124.33 96.6178 124.33 62.285C124.33 27.9522 96.4978 0.119995 62.165 0.119995C27.8322 0.119995 0 27.9522 0 62.285C0 96.6178 27.8322 124.45 62.165 124.45Z" fill="white"/>
</mask>
<g mask="url(#mask0_12_657)">
<path d="M117.681 110.798C117.681 110.798 104.909 130.798 59.4829 130.798C14.0569 130.798 1.31995 110.798 1.31995 110.798C1.31995 110.798 2.32594 98.1949 4.71994 95.8009C7.12394 93.4069 23.254 90.3789 25.53 90.3789C25.862 90.3789 26.517 90.2229 27.396 89.9489C32.428 88.4149 44.6889 83.1979 44.6889 83.1979C45.3239 81.6349 46.008 79.0649 46.575 76.7499C47.23 74.0049 47.7079 71.601 47.7079 71.601H71.283C71.283 71.601 71.8599 74.4829 72.6219 77.5509C73.1499 79.6419 73.746 81.8209 74.312 83.1979C74.312 83.1979 86.8859 88.5419 91.7899 90.0079L91.8189 90.0179C91.8189 90.0179 91.8189 90.0179 91.8289 90.0179C92.5909 90.2519 93.1679 90.3789 93.4699 90.3789C95.7459 90.3789 111.877 93.4079 114.27 95.8009C116.675 98.1949 117.681 110.798 117.681 110.798Z" fill="white"/>
<path d="M46.4989 77.041C50.2379 79.713 56.3759 83.885 58.4279 84.013C60.3869 84.135 67.6119 79.901 72.4659 76.898C71.7859 74.091 71.2859 71.595 71.2859 71.595H47.7119C47.7119 71.595 47.1969 74.176 46.4989 77.041Z" fill="#E2797F"/>
<path d="M59.4369 109.156C59.4349 109.156 59.4339 109.156 59.4319 109.156C59.2969 109.153 59.1899 109.041 59.1929 108.907C59.1969 108.727 59.5709 90.8721 59.5709 90.0021C59.5709 89.1201 60.0559 83.295 60.0759 83.048C60.0869 82.913 60.2109 82.8081 60.3399 82.8251C60.4739 82.8361 60.5739 82.9541 60.5629 83.0881C60.5579 83.1491 60.0599 89.1401 60.0599 90.0021C60.0599 90.8771 59.6969 108.181 59.6819 108.917C59.6789 109.05 59.5699 109.156 59.4369 109.156Z" fill="#EBCACA"/>
<path d="M57.2939 89.048C57.2789 89.048 57.2629 89.047 57.2479 89.043C51.3159 87.913 46.3429 84.882 46.2929 84.852C46.1779 84.781 46.1419 84.631 46.2129 84.516C46.2839 84.401 46.4339 84.364 46.5489 84.436C46.5979 84.466 51.4989 87.452 57.3399 88.564C57.4729 88.589 57.5589 88.717 57.5339 88.849C57.5109 88.967 57.4089 89.048 57.2939 89.048Z" fill="#EBCACA"/>
<path d="M62.8729 88.6699C62.7709 88.6699 62.6759 88.6059 62.6419 88.5049C62.5989 88.3769 62.6669 88.2379 62.7949 88.1949C66.8849 86.7999 72.0589 83.7999 72.1099 83.7709C72.2259 83.7019 72.3759 83.7419 72.4439 83.8589C72.5119 83.9749 72.4729 84.1249 72.3559 84.1929C72.3039 84.2229 67.0869 87.2469 62.9519 88.6569C62.9249 88.6669 62.8989 88.6699 62.8729 88.6699Z" fill="#EBCACA"/>
<path d="M22.121 108.808C21.995 108.808 21.887 108.711 21.878 108.582C21.413 102.35 20.384 98.645 20.374 98.608C20.338 98.478 20.413 98.344 20.543 98.307C20.675 98.27 20.808 98.346 20.844 98.476C20.855 98.512 21.896 102.26 22.365 108.546C22.375 108.681 22.274 108.798 22.139 108.808C22.134 108.808 22.128 108.808 22.121 108.808Z" fill="#EBCACA"/>
<path d="M97.571 109.187C97.565 109.187 97.559 109.187 97.554 109.186C97.419 109.177 97.318 109.06 97.328 108.926C97.609 104.988 98.738 98.192 98.749 98.125C98.771 97.992 98.8989 97.905 99.0299 97.924C99.1639 97.947 99.253 98.073 99.231 98.205C99.219 98.273 98.0949 105.047 97.8139 108.961C97.8059 109.089 97.698 109.187 97.571 109.187Z" fill="#EBCACA"/>
<path d="M37.833 45.3119C37.833 45.3119 33.2 43.0429 31.309 45.4069C29.418 47.7709 31.12 58.5489 39.818 59.9669L37.833 45.3119Z" fill="#EAADA9"/>
<path d="M38.432 52.773C38.354 52.773 38.276 52.735 38.229 52.665C35.23 48.197 32.481 47.542 32.454 47.536C32.322 47.506 32.239 47.376 32.268 47.244C32.297 47.112 32.426 47.03 32.56 47.058C32.68 47.085 35.528 47.763 38.635 52.392C38.71 52.504 38.68 52.656 38.568 52.731C38.526 52.76 38.479 52.773 38.432 52.773Z" fill="#E2797F"/>
<path d="M36.226 50.2519C36.206 50.2519 36.186 50.2499 36.167 50.2449C34.72 49.8839 32.936 50.1209 32.919 50.1239C32.786 50.1389 32.662 50.0489 32.644 49.9159C32.625 49.7819 32.719 49.6589 32.852 49.6409C32.929 49.6299 34.746 49.3869 36.285 49.7719C36.416 49.8049 36.495 49.9369 36.463 50.0679C36.435 50.1779 36.336 50.2519 36.226 50.2519Z" fill="#E2797F"/>
<path d="M84.603 44.4609C84.603 44.4609 89.236 42.1919 91.127 44.5549C93.018 46.9189 91.316 57.6969 82.618 59.1159L84.603 44.4609Z" fill="#EAADA9"/>
<path d="M84.004 51.9219C83.957 51.9219 83.91 51.909 83.868 51.88C83.756 51.805 83.727 51.653 83.801 51.541C86.909 46.911 89.756 46.233 89.876 46.207C90.012 46.178 90.138 46.2609 90.167 46.3919C90.197 46.5229 90.115 46.654 89.983 46.684C89.955 46.691 87.193 47.366 84.208 51.814C84.16 51.885 84.082 51.9219 84.004 51.9219Z" fill="#E2797F"/>
<path d="M86.21 49.4008C86.1 49.4008 86.001 49.3268 85.973 49.2158C85.94 49.0848 86.02 48.9528 86.15 48.9198C87.693 48.5348 89.508 48.7778 89.584 48.7888C89.718 48.8068 89.811 48.9309 89.793 49.0639C89.775 49.1969 89.662 49.2908 89.517 49.2718C89.498 49.2698 87.718 49.0309 86.268 49.3929C86.249 49.3979 86.229 49.4008 86.21 49.4008Z" fill="#E2797F"/>
<path d="M36.62 45.3749C36.62 45.3749 40.024 65.5449 42.167 69.9569C44.31 74.3689 56.538 79.4119 59.438 80.0419C62.338 80.6719 73.809 74.1169 76.583 72.0999C79.356 70.0829 85.155 55.0809 86.29 44.7439C87.425 34.4069 85.029 26.8429 82.76 22.4309C80.491 18.0189 63.094 13.9849 55.404 14.4889C47.714 14.9929 41.537 20.1619 39.646 23.6919C37.754 27.2209 35.863 41.5929 36.62 45.3749Z" fill="#EAADA9"/>
<path d="M59.776 59.3519C59.776 59.3519 62.518 59.4469 62.518 59.5879C62.518 59.7299 61.147 60.2969 60.769 60.2029C60.391 60.1089 59.776 59.3519 59.776 59.3519Z" fill="#E2797F"/>
<path d="M71.5001 48.148C71.5001 49.558 70.9821 50.701 70.3421 50.701C69.7021 50.701 69.1841 49.558 69.1841 48.148C69.1841 46.738 69.7021 45.595 70.3421 45.595C70.9811 45.596 71.5001 46.738 71.5001 48.148Z" fill="#1A2E40"/>
<path d="M61.204 70.072C57.282 70.072 54.575 67.774 54.535 67.738C54.332 67.562 54.31 67.253 54.487 67.05C54.665 66.845 54.972 66.826 55.176 67C55.399 67.194 60.734 71.69 67.259 66.973C67.476 66.817 67.782 66.864 67.941 67.083C68.099 67.301 68.05 67.607 67.831 67.765C65.44 69.495 63.169 70.072 61.204 70.072Z" fill="#DB2E3A"/>
<path d="M66.787 40.802C67.7 40.501 68.562 40.316 69.463 40.17C70.357 40.031 71.259 39.959 72.161 39.951C73.062 39.936 73.964 40.006 74.852 40.15C75.743 40.274 76.608 40.538 77.453 40.826C77.578 40.869 77.645 41.005 77.602 41.13C77.562 41.248 77.438 41.315 77.319 41.285L77.303 41.281C76.467 41.073 75.627 40.89 74.768 40.844C73.914 40.779 73.056 40.783 72.206 40.869C71.356 40.948 70.512 41.087 69.684 41.287C68.865 41.487 68.025 41.75 67.294 42.062L67.267 42.074C66.921 42.221 66.522 42.06 66.375 41.715C66.228 41.369 66.389 40.97 66.734 40.823C66.751 40.815 66.77 40.808 66.787 40.802Z" fill="#1A2E40"/>
<path d="M55.82 42.0619C55.089 41.7509 54.248 41.4869 53.43 41.2869C52.602 41.0859 51.758 40.9469 50.908 40.8689C50.058 40.7829 49.199 40.7789 48.346 40.8439C47.488 40.8899 46.647 41.0739 45.811 41.2809L45.796 41.2849C45.668 41.3169 45.538 41.2389 45.506 41.1109C45.476 40.9899 45.545 40.8669 45.661 40.8269C46.506 40.5389 47.37 40.2749 48.262 40.1509C49.149 40.0079 50.052 39.9369 50.953 39.9519C51.855 39.9599 52.757 40.0319 53.651 40.1709C54.552 40.3159 55.414 40.5009 56.327 40.8029C56.684 40.9209 56.877 41.3049 56.76 41.6619C56.643 42.0189 56.258 42.2119 55.901 42.0949C55.883 42.0889 55.866 42.0829 55.849 42.0749L55.82 42.0619Z" fill="#1A2E40"/>
<path d="M52.772 50.701C53.4115 50.701 53.93 49.558 53.93 48.148C53.93 46.738 53.4115 45.595 52.772 45.595C52.1325 45.595 51.614 46.738 51.614 48.148C51.614 49.558 52.1325 50.701 52.772 50.701Z" fill="#1A2E40"/>
<path d="M35.233 33.021C35.233 33.021 35.611 43.358 35.863 45.88C36.115 48.401 38.006 56.974 38.51 56.343C39.014 55.713 38.888 46.51 39.519 43.484C40.149 40.458 41.914 32.012 41.914 32.012L35.233 33.021Z" fill="#1A2E40"/>
<path d="M80.994 31.1289C80.994 31.1289 83.389 42.2229 83.515 46.0049C83.641 49.7869 83.137 57.2249 83.767 56.5949C84.397 55.9649 88.179 45.5009 88.557 42.7279C88.935 39.9549 89.44 32.7689 89.44 32.7689L80.994 31.1289Z" fill="#1A2E40"/>
<path d="M88.996 38.4459C74.054 35.0479 35.403 37.3039 35.403 37.3039C35.403 37.3039 34.225 35.6669 33.973 34.7849C33.721 33.9029 39.142 9.82395 40.276 8.68995C41.411 7.55495 67.632 2.76495 87.172 9.19394C87.172 9.19394 89.819 30.8769 89.945 37.0539L88.996 38.4459Z" fill="white"/>
<path d="M84.713 33.2649C84.689 33.2649 84.665 33.2619 84.641 33.2539C79.815 31.7699 61.0759 31.7519 60.8869 31.7519C60.7519 31.7519 60.6429 31.6429 60.6429 31.5079C60.6429 31.3729 60.7519 31.2639 60.8869 31.2639C61.6609 31.2639 79.8889 31.2809 84.7849 32.7879C84.9139 32.8279 84.986 32.9639 84.947 33.0929C84.914 33.1969 84.818 33.2649 84.713 33.2649Z" fill="#EBCACA"/>
</g>
</svg>
