<svg width="125" height="125" viewBox="0 0 125 125" fill="none" xmlns="http://www.w3.org/2000/svg">
<path d="M62.165 124.33C96.4978 124.33 124.33 96.4978 124.33 62.165C124.33 27.8322 96.4978 0 62.165 0C27.8322 0 0 27.8322 0 62.165C0 96.4978 27.8322 124.33 62.165 124.33Z" fill="#D14040"/>
<mask id="mask0_12_419" style="mask-type:luminance" maskUnits="userSpaceOnUse" x="0" y="0" width="125" height="125">
<path d="M62.165 124.33C96.4978 124.33 124.33 96.4978 124.33 62.165C124.33 27.8322 96.4978 0 62.165 0C27.8322 0 0 27.8322 0 62.165C0 96.4978 27.8322 124.33 62.165 124.33Z" fill="white"/>
</mask>
<g mask="url(#mask0_12_419)">
<path d="M120.345 114.07H3.98499C3.98499 114.07 4.99098 101.467 7.38498 99.073C9.78898 96.679 25.919 93.651 28.195 93.651C28.488 93.651 29.026 93.534 29.739 93.319C32.26 92.586 36.998 90.72 40.926 89.128C44.473 87.692 47.355 86.461 47.355 86.461C48.742 83.061 50.374 74.864 50.374 74.864H73.949C73.949 74.864 75.59 83.061 76.978 86.461C76.978 86.461 81.775 88.503 86.601 90.398C90.187 91.834 93.801 93.173 95.453 93.554C95.746 93.613 95.981 93.652 96.137 93.652C98.413 93.652 114.544 96.681 116.937 99.074C119.339 101.466 120.345 114.07 120.345 114.07Z" fill="#EEC19F"/>
<path d="M49.1639 80.312C52.9029 82.984 59.0409 87.156 61.0929 87.284C63.0519 87.406 70.277 83.172 75.131 80.169C74.451 77.362 73.951 74.866 73.951 74.866H50.377C50.377 74.866 49.8609 77.446 49.1639 80.312Z" fill="#E59066"/>
<path d="M116.936 99.073C114.543 96.679 98.412 93.651 96.136 93.651C95.98 93.651 95.745 93.612 95.452 93.553C94.007 93.219 91.057 92.152 87.939 90.928C62.294 112.419 41.487 93.429 38.269 90.193C35.034 91.479 31.71 92.745 29.739 93.318C29.026 93.533 28.489 93.65 28.195 93.65C25.919 93.65 9.78798 96.679 7.38498 99.072C4.99098 101.466 3.98499 114.069 3.98499 114.069C3.98499 114.069 26.012 134.069 62.566 134.069C99.12 134.069 120.346 114.069 120.346 114.069C120.346 114.069 119.339 101.466 116.936 99.073Z" fill="white"/>
<path d="M22.013 112.552C21.883 112.552 21.775 112.45 21.769 112.319C21.645 109.602 20.277 104.102 20.263 104.047C20.231 103.916 20.31 103.784 20.441 103.751C20.572 103.718 20.705 103.798 20.737 103.929C20.794 104.157 22.13 109.531 22.256 112.297C22.262 112.432 22.158 112.546 22.023 112.552C22.02 112.552 22.016 112.552 22.013 112.552Z" fill="#EBCACA"/>
<path d="M104.955 112.804C104.947 112.804 104.939 112.804 104.93 112.803C104.796 112.79 104.698 112.67 104.711 112.536C104.961 110.041 105.714 103.77 105.721 103.707C105.736 103.573 105.85 103.475 105.993 103.494C106.127 103.51 106.222 103.631 106.206 103.765C106.198 103.828 105.447 110.094 105.198 112.585C105.186 112.71 105.08 112.804 104.955 112.804Z" fill="#EBCACA"/>
<path d="M62.931 105.232C51.425 105.232 44.039 99.979 43.93 99.898C43.821 99.819 43.797 99.666 43.877 99.557C43.957 99.449 44.11 99.424 44.218 99.504C44.381 99.622 60.749 111.247 82.787 99.485C82.907 99.422 83.054 99.466 83.118 99.586C83.181 99.705 83.136 99.853 83.018 99.917C75.549 103.903 68.719 105.232 62.931 105.232Z" fill="#EBCACA"/>
<path d="M62.566 134.07C75.134 134.07 85.89 131.706 94.594 128.603C95.018 117.164 95.59 96.815 95.451 93.553C95.256 93.508 95.029 93.448 94.783 93.377C94.7 93.353 94.605 93.323 94.517 93.297C94.343 93.245 94.167 93.192 93.974 93.131C93.858 93.094 93.734 93.053 93.612 93.013C93.423 92.951 93.232 92.888 93.029 92.819C92.898 92.774 92.764 92.728 92.628 92.681C92.417 92.608 92.202 92.532 91.98 92.452C91.835 92.4 91.69 92.348 91.54 92.294C91.308 92.21 91.071 92.123 90.83 92.033C90.685 91.979 90.542 91.927 90.394 91.871C90.12 91.768 89.84 91.662 89.558 91.554C89.433 91.506 89.312 91.461 89.186 91.412C88.775 91.254 88.358 91.092 87.937 90.927C87.467 91.321 86.999 91.697 86.533 92.064C86.397 95.417 86.106 102.016 85.689 108.009C76.317 108.414 51.152 107.901 40.145 107.646C40.265 102.669 40.557 96.368 40.753 92.436C39.579 91.471 38.735 90.665 38.267 90.194C37.947 90.321 37.629 90.447 37.309 90.573C37.149 90.636 36.99 90.698 36.831 90.761C36.56 90.867 36.292 90.972 36.023 91.076C35.799 91.163 35.579 91.247 35.358 91.332C35.134 91.418 34.909 91.505 34.689 91.588C34.272 91.746 33.864 91.899 33.466 92.046C33.322 92.099 33.186 92.148 33.045 92.2C32.759 92.304 32.479 92.406 32.209 92.502C32.066 92.553 31.929 92.601 31.791 92.649C31.525 92.742 31.272 92.828 31.026 92.91C30.912 92.948 30.796 92.987 30.687 93.023C30.347 93.134 30.024 93.236 29.737 93.319C29.396 96.109 28.695 116.163 28.265 127.852C37.446 131.315 49.003 134.07 62.566 134.07Z" fill="#E69325"/>
<path d="M40.15 113.576C40.016 113.576 39.908 113.469 39.906 113.335C39.904 113.179 39.859 109.486 39.906 108.358C39.912 108.223 40.012 108.108 40.16 108.124C40.295 108.13 40.4 108.244 40.394 108.378C40.347 109.493 40.393 113.291 40.394 113.329C40.395 113.463 40.288 113.574 40.153 113.576H40.15Z" fill="#D4671A"/>
<path d="M85.297 113.434C85.288 113.434 85.28 113.433 85.271 113.433C85.137 113.419 85.039 113.298 85.054 113.164C85.058 113.133 85.385 110.086 85.432 108.926C85.438 108.792 85.548 108.7 85.686 108.692C85.821 108.698 85.925 108.811 85.921 108.946C85.873 110.122 85.555 113.091 85.541 113.217C85.526 113.341 85.42 113.434 85.297 113.434Z" fill="#D4671A"/>
<path d="M36.762 50.158C36.762 50.158 42.561 75.623 43.948 76.506C45.335 77.388 44.452 75.371 45.839 75.624C47.226 75.877 49.369 76.506 51.638 76.38C53.907 76.254 76.725 74.237 77.355 74.615C77.985 74.993 77.481 78.397 78.994 78.523C80.507 78.649 86.432 67.808 88.575 60.748C90.718 53.688 90.8439 45.62 90.8439 45.62L36.762 50.158Z" fill="#8A4A29"/>
<path d="M41.1431 51.0721C41.1431 51.0721 36.51 48.8031 34.619 51.1671C32.728 53.5311 34.4301 64.3091 43.1281 65.7271L41.1431 51.0721Z" fill="#EEC19F"/>
<path d="M41.742 58.5331C41.664 58.5331 41.587 58.4951 41.539 58.4251C38.554 53.9771 35.79 53.3021 35.763 53.2951C35.632 53.2651 35.549 53.1351 35.579 53.0031C35.609 52.8711 35.738 52.7871 35.87 52.8181C35.99 52.8451 38.838 53.5231 41.945 58.1521C42.02 58.2641 41.99 58.4161 41.878 58.4911C41.836 58.5201 41.789 58.5331 41.742 58.5331Z" fill="#E59066"/>
<path d="M39.5361 56.012C39.5161 56.012 39.4971 56.0101 39.4771 56.0051C38.0301 55.6431 36.2461 55.881 36.2291 55.884C36.0951 55.897 35.9721 55.81 35.9541 55.675C35.9351 55.542 36.0291 55.418 36.1621 55.4C36.2391 55.389 38.0551 55.1461 39.5951 55.5311C39.7261 55.5641 39.8051 55.6971 39.7731 55.8271C39.7451 55.9381 39.6461 56.012 39.5361 56.012Z" fill="#E59066"/>
<path d="M86.4 51.0721C86.4 51.0721 91.033 48.8031 92.924 51.1671C94.815 53.5311 93.113 64.3091 84.415 65.7271L86.4 51.0721Z" fill="#EEC19F"/>
<path d="M85.801 58.5331C85.754 58.5331 85.707 58.5201 85.665 58.4921C85.553 58.4171 85.524 58.2651 85.598 58.1531C88.706 53.5241 91.554 52.8451 91.673 52.8191C91.808 52.7881 91.936 52.8721 91.964 53.0041C91.994 53.1351 91.911 53.2661 91.78 53.2961C91.752 53.3031 88.99 53.9781 86.005 58.4261C85.956 58.4961 85.879 58.5331 85.801 58.5331Z" fill="#E59066"/>
<path d="M88.007 56.012C87.897 56.012 87.798 55.9381 87.77 55.8271C87.737 55.6961 87.817 55.5641 87.947 55.5311C89.487 55.1461 91.304 55.389 91.381 55.4C91.515 55.418 91.608 55.542 91.59 55.675C91.572 55.808 91.459 55.904 91.314 55.884C91.296 55.882 89.515 55.6431 88.065 56.0051C88.046 56.0101 88.026 56.012 88.007 56.012Z" fill="#E59066"/>
<path d="M39.284 48.645C39.284 48.645 42.688 68.815 44.831 73.228C46.974 77.64 59.202 82.683 62.102 83.313C65.002 83.943 76.473 77.388 79.247 75.371C82.02 73.354 87.819 58.352 88.954 48.015C90.088 37.678 87.693 30.114 85.424 25.702C83.155 21.29 65.758 17.256 58.068 17.76C50.378 18.264 44.201 23.433 42.31 26.963C40.418 30.492 38.527 44.863 39.284 48.645Z" fill="#EEC19F"/>
<path d="M81.641 32.383C81.641 32.383 86.179 41.46 86.81 46.25C87.44 51.041 86.684 56.587 87.566 56.84C88.448 57.093 92.861 45.872 93.113 38.056C93.365 30.24 91.726 27.593 91.726 27.593C91.726 27.593 84.288 29.232 83.658 30.114C83.028 30.996 81.641 32.383 81.641 32.383Z" fill="#8A4A29"/>
<path d="M41.679 61.251C42.199 61.251 39.914 47.258 40.67 47.636C41.426 48.014 42.309 50.031 42.309 50.031C42.309 50.031 43.444 51.67 43.822 49.275C44.2 46.88 43.192 40.072 43.822 39.064C44.452 38.056 46.974 34.652 47.352 31.626C47.352 31.626 48.991 33.265 55.924 34.778C62.857 36.291 73.195 35.282 77.985 34.904C82.775 34.526 84.414 34.148 84.414 33.517C84.414 32.887 83.279 32.382 84.036 32.004C84.792 31.626 97.021 30.491 101.811 25.07C106.601 19.649 108.492 15.867 107.862 15.111C107.232 14.355 107.358 14.229 104.71 14.859C102.063 15.489 95.633 16.12 95.003 15.237C94.373 14.355 95.129 13.85 94.121 13.724C93.112 13.598 92.734 14.48 89.457 13.724C86.179 12.968 77.733 9.69001 66.891 9.94201C56.049 10.194 50.881 12.463 46.468 16.119C46.468 16.119 43.947 14.228 43.064 12.337C42.182 10.446 41.803 9.05901 40.921 9.81601C40.039 10.572 39.282 10.446 39.66 13.22C40.038 15.993 41.299 18.01 41.299 18.641C41.299 19.271 38.273 18.389 37.139 18.137C36.004 17.885 34.114 18.767 35.122 19.902C36.131 21.037 39.408 22.171 39.408 22.171C39.408 22.171 35.248 25.449 33.735 28.6C32.222 31.752 31.34 38.559 32.474 40.072C33.609 41.585 33.861 39.19 34.365 40.954C34.869 42.719 34.491 44.358 35.5 47.509C36.51 50.662 39.662 61.251 41.679 61.251Z" fill="#8A4A29"/>
<path d="M61.707 62.594C61.707 62.594 64.449 62.689 64.449 62.831C64.449 62.973 63.078 63.54 62.7 63.446C62.322 63.351 61.707 62.594 61.707 62.594Z" fill="#E59066"/>
<path d="M73.4311 51.39C73.4311 52.8 72.9131 53.943 72.2731 53.943C71.6331 53.943 71.1151 52.8 71.1151 51.39C71.1151 49.98 71.6331 48.837 72.2731 48.837C72.9131 48.837 73.4311 49.98 73.4311 51.39Z" fill="#592B14"/>
<path d="M63.135 73.315C59.213 73.315 56.506 71.016 56.466 70.981C56.263 70.804 56.2411 70.496 56.4181 70.293C56.5961 70.09 56.903 70.068 57.107 70.244C57.33 70.437 62.665 74.933 69.191 70.217C69.409 70.059 69.7151 70.108 69.8731 70.327C70.0311 70.546 69.982 70.851 69.763 71.009C67.37 72.737 65.1 73.315 63.135 73.315Z" fill="#DB2E3A"/>
<path d="M68.718 44.044C69.631 43.743 70.493 43.558 71.394 43.412C72.288 43.273 73.19 43.201 74.092 43.193C74.993 43.178 75.895 43.249 76.783 43.392C77.674 43.516 78.539 43.78 79.384 44.068C79.509 44.111 79.576 44.247 79.533 44.372C79.493 44.49 79.369 44.557 79.25 44.527L79.234 44.523C78.398 44.315 77.558 44.132 76.7 44.086C75.846 44.021 74.988 44.025 74.138 44.111C73.288 44.19 72.444 44.329 71.616 44.53C70.798 44.73 69.957 44.993 69.226 45.305L69.199 45.317C68.853 45.464 68.454 45.303 68.307 44.958C68.16 44.612 68.321 44.213 68.666 44.066C68.682 44.057 68.701 44.05 68.718 44.044Z" fill="#592B14"/>
<path d="M57.7511 45.304C57.0191 44.992 56.1791 44.729 55.3611 44.529C54.5331 44.328 53.6891 44.189 52.8391 44.11C51.9881 44.024 51.1301 44.02 50.2771 44.085C49.4191 44.131 48.5781 44.315 47.7421 44.522L47.7271 44.526C47.5991 44.558 47.4691 44.48 47.4371 44.352C47.4071 44.231 47.4761 44.108 47.5921 44.068C48.4371 43.78 49.3021 43.516 50.1931 43.392C51.0801 43.249 51.9831 43.178 52.8841 43.193C53.7851 43.201 54.6881 43.273 55.5821 43.412C56.4831 43.557 57.3451 43.742 58.2581 44.044C58.6151 44.162 58.8081 44.546 58.6911 44.903C58.5731 45.26 58.1891 45.453 57.8321 45.336C57.8141 45.33 57.7971 45.324 57.7801 45.316L57.7511 45.304Z" fill="#592B14"/>
<path d="M53.545 51.39C53.545 52.8 54.064 53.943 54.703 53.943C55.343 53.943 55.861 52.8 55.861 51.39C55.861 49.98 55.343 48.837 54.703 48.837C54.064 48.837 53.545 49.98 53.545 51.39Z" fill="#592B14"/>
<path d="M65.9 32.953C59.876 32.953 55.847 32.261 55.755 32.245C55.622 32.221 55.534 32.094 55.558 31.961C55.582 31.828 55.712 31.74 55.841 31.764C56.051 31.801 77.151 35.417 95.268 25.863C95.388 25.8 95.535 25.846 95.597 25.965C95.66 26.084 95.614 26.232 95.495 26.295C85.131 31.762 73.801 32.953 65.9 32.953Z" fill="#592B14"/>
<path d="M68.271 29.72C65.895 29.72 64.158 29.613 63.977 29.601C63.843 29.592 63.741 29.476 63.749 29.341C63.758 29.206 63.875 29.103 64.009 29.113C64.125 29.121 75.734 29.839 80.911 27.495C81.037 27.441 81.178 27.495 81.234 27.617C81.29 27.74 81.235 27.885 81.113 27.94C77.822 29.429 72.181 29.72 68.271 29.72Z" fill="#592B14"/>
<path d="M35.3761 35.2741C35.3651 35.2741 35.3531 35.2731 35.3421 35.2721C35.2081 35.2531 35.1151 35.1301 35.1341 34.9961C36.0601 28.3781 40.4741 25.3711 40.6611 25.2461C40.7721 25.1711 40.9241 25.2011 41.0001 25.3141C41.0751 25.4271 41.0441 25.5781 40.9321 25.6531C40.8881 25.6831 36.5141 28.6621 35.6181 35.0641C35.6001 35.1861 35.4961 35.2741 35.3761 35.2741Z" fill="#592B14"/>
</g>
</svg>
