<svg width="125" height="125" viewBox="0 0 125 125" fill="none" xmlns="http://www.w3.org/2000/svg">
<path d="M62.165 124.571C96.4978 124.571 124.33 96.7389 124.33 62.4061C124.33 28.0733 96.4978 0.241089 62.165 0.241089C27.8322 0.241089 0 28.0733 0 62.4061C0 96.7389 27.8322 124.571 62.165 124.571Z" fill="#E69325"/>
<mask id="mask0_12_527" style="mask-type:luminance" maskUnits="userSpaceOnUse" x="0" y="0" width="125" height="125">
<path d="M62.165 124.571C96.4978 124.571 124.33 96.7389 124.33 62.4061C124.33 28.0733 96.4978 0.241089 62.165 0.241089C27.8322 0.241089 0 28.0733 0 62.4061C0 96.7389 27.8322 124.571 62.165 124.571Z" fill="white"/>
</mask>
<g mask="url(#mask0_12_527)">
<path d="M72.981 74.4001C72.981 74.4001 74.62 82.5942 76.006 85.9982C76.006 85.9982 92.899 93.1841 95.168 93.1841C97.437 93.1841 113.573 96.2092 115.969 98.6052C118.364 101 119.373 113.607 119.373 113.607C119.373 113.607 107.476 133.607 63.329 133.607C19.182 133.607 3.01501 113.607 3.01501 113.607C3.01501 113.607 4.02301 101.001 6.41901 98.6052C8.81401 96.2102 24.951 93.1841 27.22 93.1841C29.489 93.1841 46.382 85.9982 46.382 85.9982C47.769 82.5942 49.407 74.4001 49.407 74.4001H72.981Z" fill="#EEC19F"/>
<path d="M48.193 79.8452C51.932 82.5172 58.07 86.6892 60.122 86.8172C62.081 86.9392 69.306 82.7051 74.16 79.7021C73.48 76.8951 72.98 74.3992 72.98 74.3992H49.406C49.406 74.3992 48.891 76.9802 48.193 79.8452Z" fill="#E59066"/>
<path d="M43.482 96.0831L43.126 132.047C49.09 133.014 55.793 133.606 63.329 133.606C69.471 133.606 74.968 133.208 79.917 132.542L80.419 96.0831C60.5 105.16 43.482 96.0831 43.482 96.0831Z" fill="white"/>
<path d="M62.601 103.224C56.433 103.224 50.824 102.013 50.74 101.995C50.608 101.966 50.525 101.836 50.554 101.704C50.583 101.572 50.711 101.491 50.845 101.518C50.971 101.546 63.484 104.247 71.578 101.525C71.711 101.483 71.845 101.551 71.888 101.679C71.931 101.808 71.862 101.946 71.734 101.989C68.974 102.915 65.716 103.224 62.601 103.224Z" fill="#EBCACA"/>
<path d="M40.546 131.601L39.551 88.8281C39.535 88.8351 39.518 88.8411 39.502 88.8481C38.595 89.2151 37.654 89.5921 36.71 89.9651C36.663 89.9841 36.616 90.0021 36.569 90.0211C36.309 90.1241 36.049 90.2261 35.79 90.3271C35.71 90.3581 35.63 90.3891 35.55 90.4201C35.33 90.5061 35.11 90.5911 34.892 90.6761C34.788 90.7161 34.685 90.7561 34.582 90.7951C34.384 90.8711 34.188 90.9461 33.992 91.0211C33.889 91.0601 33.786 91.1001 33.683 91.1381C33.491 91.2111 33.303 91.2811 33.115 91.3521C33.008 91.3921 32.901 91.4321 32.796 91.4711C32.61 91.5401 32.428 91.6071 32.247 91.6731C32.152 91.7081 32.055 91.7441 31.961 91.7781C31.422 91.9741 30.908 92.1561 30.43 92.3201C30.352 92.3471 30.279 92.3711 30.202 92.3971C30.045 92.4501 29.89 92.5021 29.742 92.5511C29.655 92.5791 29.573 92.6051 29.49 92.6321C29.36 92.6741 29.233 92.7141 29.112 92.7511C29.029 92.7761 28.95 92.8001 28.872 92.8231C28.759 92.8571 28.65 92.8881 28.545 92.9181C28.473 92.9381 28.402 92.9581 28.334 92.9761C28.232 93.0031 28.137 93.0271 28.045 93.0491C27.988 93.0631 27.929 93.0771 27.876 93.0891C27.782 93.1101 27.7 93.1251 27.62 93.1391C27.581 93.1461 27.538 93.1551 27.502 93.1601C27.393 93.1761 27.298 93.1851 27.221 93.1851C26.512 93.1851 24.449 93.4811 21.874 93.9601C21.359 94.0561 20.824 94.1591 20.274 94.2691C18.901 94.5431 17.442 94.8581 16.003 95.1991C14.564 95.5401 13.144 95.9081 11.849 96.2881C11.59 96.3641 11.336 96.4401 11.088 96.5171C10.344 96.7481 9.65199 96.9821 9.03499 97.2171C8.82899 97.2951 8.632 97.3731 8.444 97.4521C8.068 97.6081 7.729 97.7651 7.433 97.9201C6.99 98.1531 6.644 98.3831 6.42 98.6071C4.025 101.002 3.01599 113.609 3.01599 113.609C3.01599 113.609 13.487 126.536 40.546 131.601Z" fill="#7A7D1D"/>
<path d="M46.3811 85.9982C46.3811 85.9982 46.318 86.0252 46.227 86.0632C46.204 86.0732 46.1811 86.0832 46.1521 86.0952C46.1151 86.1112 46.083 86.1242 46.037 86.1442C45.843 86.2262 45.5771 86.3382 45.2361 86.4812C45.2341 86.4822 45.231 86.4832 45.231 86.4832C44.878 86.6312 44.449 86.8111 43.968 87.0121C43.955 87.0171 43.9431 87.0222 43.9301 87.0282C41.4571 88.0582 37.5231 89.6742 34.0601 90.9942C33.5641 94.0912 34.261 118.49 34.869 130.376C39.242 131.458 44.1331 132.333 49.5561 132.901C48.6421 120.8 46.3811 85.9982 46.3811 85.9982Z" fill="#B6BA2C"/>
<path d="M19.845 112.149C19.715 112.149 19.607 112.047 19.601 111.916C19.414 108.005 18.291 101.172 18.28 101.103C18.258 100.969 18.348 100.843 18.481 100.822C18.613 100.802 18.739 100.89 18.762 101.023C18.773 101.092 19.901 107.954 20.089 111.893C20.096 112.028 19.992 112.142 19.857 112.149C19.852 112.149 19.848 112.149 19.845 112.149Z" fill="#B6BA2C"/>
<path d="M94.7931 93.1421C94.7221 93.1301 94.6531 93.1191 94.5701 93.1011C94.5211 93.0911 94.4621 93.0751 94.4091 93.0631C94.3261 93.0441 94.2461 93.0261 94.1541 93.0021C94.0931 92.9861 94.0221 92.9661 93.9571 92.9481C93.8631 92.9221 93.7711 92.8981 93.6691 92.8681C93.5951 92.8461 93.5121 92.8211 93.4341 92.7971C93.3301 92.7661 93.2291 92.7361 93.1191 92.7021C93.0371 92.6761 92.9491 92.6471 92.8641 92.6201C92.7481 92.5831 92.6331 92.5461 92.5111 92.5061C92.4271 92.4781 92.3381 92.4481 92.2511 92.4181C92.1171 92.3731 91.9841 92.3291 91.8451 92.2801C91.7681 92.2531 91.6861 92.2251 91.6081 92.1971C91.4531 92.1431 91.2971 92.0891 91.1361 92.0311C91.0561 92.0031 90.9731 91.9721 90.8921 91.9441C90.7271 91.8851 90.5611 91.8251 90.3901 91.7631C90.3051 91.7321 90.2181 91.7001 90.1321 91.6681C89.9591 91.6041 89.7851 91.5411 89.6071 91.4751C89.5271 91.4451 89.4461 91.4151 89.3661 91.3851C89.1721 91.3121 88.9771 91.2391 88.7791 91.1651C88.7181 91.1421 88.6551 91.1181 88.5931 91.0941C88.3791 91.0131 88.1641 90.9311 87.9461 90.8471C87.8871 90.8241 87.8271 90.8011 87.7681 90.7781C87.5401 90.6911 87.3121 90.6031 87.0821 90.5131C87.0381 90.4961 86.9941 90.4791 86.9501 90.4621C86.7061 90.3671 86.4611 90.2711 86.2161 90.1751C86.1781 90.1601 86.1401 90.1451 86.1021 90.1301C85.8471 90.0301 85.5921 89.9291 85.3371 89.8281C85.3161 89.8201 85.2961 89.8111 85.2751 89.8031C85.0001 89.6941 84.7271 89.5851 84.4531 89.4761C82.6861 93.7051 79.1271 117.521 76.9541 132.898C109.97 129.366 119.373 113.605 119.373 113.605C119.373 113.605 118.365 100.999 115.969 98.6031C113.574 96.2081 97.4381 93.1821 95.1681 93.1821C95.0961 93.1821 95.0101 93.1751 94.9101 93.1611C94.8751 93.1581 94.8311 93.1481 94.7931 93.1421Z" fill="#7A7D1D"/>
<path d="M82.566 132.154C84.179 118.14 87.158 93.0471 87.414 90.6431C86.751 90.3871 86.079 90.1231 85.407 89.8571C85.383 89.8471 85.358 89.8381 85.334 89.8281C85.031 89.7081 84.73 89.5881 84.429 89.4681C84.387 89.4511 84.346 89.4351 84.304 89.4181C84.009 89.3001 83.717 89.1831 83.426 89.0661C83.396 89.0541 83.366 89.0421 83.337 89.0301C82.361 88.6361 81.4201 88.2521 80.5551 87.8971C80.5521 87.8961 80.55 87.8951 80.547 87.8941C80.265 87.7781 79.994 87.6661 79.73 87.5571C79.709 87.5481 79.6881 87.5401 79.6671 87.5311C79.4221 87.4301 79.186 87.3321 78.959 87.2381C78.934 87.2281 78.908 87.2171 78.883 87.2071C78.657 87.1131 78.44 87.0231 78.235 86.9371C78.221 86.9311 78.2071 86.9251 78.1931 86.9201C77.5481 86.6511 77.0221 86.4301 76.6451 86.2711C76.6031 86.2531 76.569 86.2391 76.531 86.2231C76.198 86.0831 76.005 86.0001 76.005 86.0001C76.005 86.0001 71.6561 118.048 69.6281 133.453C74.3421 133.235 78.647 132.786 82.566 132.154Z" fill="#B6BA2C"/>
<path d="M101.219 112.275C101.217 112.275 101.214 112.275 101.211 112.275C101.077 112.271 100.971 112.159 100.974 112.023C101.099 107.762 102.73 100.949 102.746 100.88C102.777 100.749 102.912 100.669 103.041 100.7C103.172 100.732 103.253 100.863 103.221 100.995C103.205 101.063 101.587 107.827 101.463 112.039C101.459 112.17 101.351 112.275 101.219 112.275Z" fill="#B6BA2C"/>
<path d="M85.5399 49.0301C85.5399 49.0301 90.1729 46.7611 92.0639 49.1241C93.9549 51.4881 92.2529 62.2661 83.5549 63.6851L85.5399 49.0301Z" fill="#EEC19F"/>
<path d="M84.9409 56.4921C84.8939 56.4921 84.8469 56.4791 84.8039 56.4511C84.6929 56.3761 84.6629 56.2241 84.7369 56.1111C87.8439 51.4821 90.6919 50.8031 90.8119 50.7771C90.9469 50.7491 91.0739 50.8301 91.1029 50.9621C91.1329 51.0931 91.0509 51.2231 90.9189 51.2541C90.8909 51.2601 88.1289 51.9351 85.1439 56.3841C85.0969 56.4531 85.0189 56.4921 84.9409 56.4921Z" fill="#E59066"/>
<path d="M87.1469 53.9702C87.0369 53.9702 86.9379 53.8962 86.9099 53.7852C86.8769 53.6542 86.9569 53.5222 87.0869 53.4892C88.6279 53.1032 90.4429 53.3472 90.5199 53.3572C90.6539 53.3762 90.7469 53.4992 90.7289 53.6332C90.7109 53.7662 90.5959 53.8592 90.4529 53.8422C90.4339 53.8382 88.6519 53.6012 87.2049 53.9622C87.1859 53.9682 87.1659 53.9702 87.1469 53.9702Z" fill="#E59066"/>
<path d="M40.157 49.8811C40.157 49.8811 35.524 47.6121 33.633 49.9761C31.742 52.3401 33.444 63.1181 42.142 64.5361L40.157 49.8811Z" fill="#EEC19F"/>
<path d="M40.7559 57.3431C40.6779 57.3431 40.5999 57.3051 40.5529 57.2351C37.5679 52.7861 34.8049 52.1111 34.7769 52.1051C34.6459 52.0741 34.5629 51.9441 34.5929 51.8131C34.6229 51.6811 34.7509 51.5961 34.8839 51.6281C35.0039 51.6551 37.8519 52.3331 40.9589 56.9621C41.0339 57.0751 41.0039 57.2261 40.8919 57.3021C40.8499 57.3291 40.8029 57.3431 40.7559 57.3431Z" fill="#E59066"/>
<path d="M38.5489 54.8212C38.5289 54.8212 38.5099 54.8192 38.4899 54.8132C37.0429 54.4522 35.2599 54.6902 35.2419 54.6932C35.1109 54.7002 34.9849 54.6182 34.9669 54.4842C34.9479 54.3502 35.0419 54.2272 35.1749 54.2082C35.2519 54.1982 37.0679 53.9532 38.6079 54.3402C38.7389 54.3722 38.8189 54.5052 38.7859 54.6362C38.7589 54.7462 38.6589 54.8212 38.5489 54.8212Z" fill="#E59066"/>
<path d="M38.3129 48.1792C38.3129 48.1792 41.7169 68.3492 43.8599 72.7622C46.0029 77.1742 58.2309 82.2172 61.1309 82.8472C64.0309 83.4772 75.5019 76.9222 78.2759 74.9052C81.0489 72.8882 86.8479 57.8862 87.9829 47.5492C89.1179 37.2122 86.7219 29.6482 84.4529 25.2362C82.1839 20.8242 64.7869 16.7902 57.0969 17.2942C49.4069 17.7982 43.2299 22.9672 41.3389 26.4972C39.4479 30.0262 37.5559 44.3972 38.3129 48.1792Z" fill="#EEC19F"/>
<path d="M60.5869 59.9092C60.5869 59.9092 63.3289 60.0042 63.3289 60.1452C63.3289 60.2872 61.9579 60.8542 61.5799 60.7602C61.2019 60.6652 60.5869 59.9092 60.5869 59.9092Z" fill="#E59066"/>
<path d="M72.3109 48.7051C72.3109 50.1151 71.7929 51.2581 71.1529 51.2581C70.5129 51.2581 69.9949 50.1151 69.9949 48.7051C69.9949 47.2951 70.5129 46.1521 71.1529 46.1521C71.7929 46.1521 72.3109 47.2951 72.3109 48.7051Z" fill="#1A2E40"/>
<path d="M62.014 70.6291C58.092 70.6291 55.3849 68.3311 55.3449 68.2951C55.1419 68.1181 55.12 67.8101 55.297 67.6071C55.474 67.4031 55.782 67.3831 55.986 67.5571C56.209 67.7511 61.543 72.2471 68.07 67.5301C68.288 67.3721 68.594 67.4221 68.752 67.6401C68.91 67.8581 68.8609 68.1641 68.6419 68.3221C66.2499 70.0511 63.98 70.6291 62.014 70.6291Z" fill="#DB2E3A"/>
<path d="M52.4249 48.7051C52.4249 50.1151 52.9429 51.2581 53.5829 51.2581C54.2229 51.2581 54.7409 50.1151 54.7409 48.7051C54.7409 47.2951 54.2229 46.1521 53.5829 46.1521C52.9439 46.1521 52.4249 47.2951 52.4249 48.7051Z" fill="#1A2E40"/>
<path d="M67.755 40.2822C69.594 40.0192 71.396 39.8512 73.236 39.7992C74.153 39.7762 75.072 39.7752 75.998 39.8452C76.922 39.9152 77.851 40.0252 78.774 40.2902C79.033 40.3642 79.183 40.6352 79.109 40.8942C79.039 41.1372 78.797 41.2842 78.553 41.2402L78.533 41.2362C76.866 40.9302 75.08 41.0362 73.334 41.2242C71.586 41.4192 69.818 41.7362 68.121 42.1262L68.1 42.1312C67.593 42.2472 67.089 41.9312 66.972 41.4252C66.856 40.9182 67.172 40.4142 67.678 40.2972C67.703 40.2912 67.73 40.2862 67.755 40.2822Z" fill="#34495E"/>
<path d="M56.5989 42.1261C54.9019 41.7361 53.1339 41.4191 51.3859 41.2241C49.6389 41.0361 47.8539 40.9301 46.1869 41.2361L46.1689 41.2391C45.9039 41.2881 45.6489 41.1121 45.5999 40.8471C45.5539 40.5981 45.7079 40.3581 45.9459 40.2891C46.8689 40.0241 47.7979 39.9141 48.7219 39.8441C49.6469 39.7741 50.5669 39.7761 51.4839 39.7981C53.3239 39.8501 55.1259 40.0181 56.9649 40.2811C57.4789 40.3551 57.8369 40.8321 57.7629 41.3461C57.6889 41.8601 57.2119 42.2181 56.6979 42.1441C56.6719 42.1401 56.6469 42.1361 56.6219 42.1301L56.5989 42.1261Z" fill="#34495E"/>
<path opacity="0.45" d="M58.9859 48.3391C58.9859 51.4221 56.487 53.9221 53.403 53.9221C50.32 53.9221 47.8199 51.4221 47.8199 48.3391C47.8199 45.2561 50.32 42.7561 53.403 42.7561C56.487 42.7561 58.9859 45.2561 58.9859 48.3391Z" fill="white"/>
<path d="M58.9859 48.3391C58.9859 51.4221 56.487 53.9221 53.403 53.9221C50.32 53.9221 47.8199 51.4221 47.8199 48.3391C47.8199 45.2561 50.32 42.7561 53.403 42.7561C56.487 42.7561 58.9859 45.2561 58.9859 48.3391Z" stroke="#592B14" stroke-width="0.977" stroke-miterlimit="10"/>
<path opacity="0.45" d="M77.376 48.3391C77.376 51.4221 74.876 53.9221 71.793 53.9221C68.71 53.9221 66.21 51.4221 66.21 48.3391C66.21 45.2561 68.71 42.7561 71.793 42.7561C74.876 42.7561 77.376 45.2561 77.376 48.3391Z" fill="white"/>
<path d="M77.376 48.3391C77.376 51.4221 74.876 53.9221 71.793 53.9221C68.71 53.9221 66.21 51.4221 66.21 48.3391C66.21 45.2561 68.71 42.7561 71.793 42.7561C74.876 42.7561 77.376 45.2561 77.376 48.3391Z" stroke="#592B14" stroke-width="0.977" stroke-miterlimit="10"/>
<path d="M59.2119 48.7391L59.0459 47.775C59.2419 47.742 63.8549 46.962 66.3629 47.793L66.0559 48.72C63.7809 47.967 59.2589 48.7311 59.2119 48.7391Z" fill="#592B14"/>
<path d="M77.6976 48.1533L77.5964 49.125L86.6722 50.0694L86.7733 49.0977L77.6976 48.1533Z" fill="#592B14"/>
<path d="M47.728 48.1679L39.8807 49.6335L40.0599 50.5929L47.9072 49.1273L47.728 48.1679Z" fill="#592B14"/>
<path d="M39.227 57.6651C39.429 57.9851 40.173 60.0291 40.551 59.6501C40.929 59.2721 41.213 56.1521 41.213 54.3551C41.213 52.5591 40.646 52.0861 40.646 50.2891C40.646 48.4931 41.686 48.6821 40.835 46.6021C39.984 44.5221 39.228 44.6161 39.795 42.7251C40.362 40.8341 41.402 39.7941 40.93 37.1471C40.457 34.5001 41.024 33.2701 41.781 31.7581C42.537 30.2451 42.348 28.3541 43.105 27.1251C43.861 25.8961 45.09 26.2741 47.076 25.7071C49.062 25.1401 47.171 22.2091 49.818 22.3031C52.465 22.3981 51.898 25.0451 54.735 24.0051C57.572 22.9651 58.044 20.6011 60.219 21.1691C62.394 21.7361 60.314 23.3441 62.961 23.4381C65.608 23.5331 68.445 21.4521 70.62 22.1141C72.795 22.7761 72.133 24.0051 73.267 24.7611C74.402 25.5171 78.089 24.4771 80.358 25.0451C82.627 25.6121 81.493 25.6121 83.1 27.7871C84.707 29.9621 86.315 28.2601 86.409 30.9071C86.504 33.5541 86.976 37.7141 86.504 40.0781C86.031 42.4421 87.355 43.9541 86.599 46.8851C85.843 49.8161 86.032 51.4231 85.748 53.8821C85.464 56.3401 84.897 56.2461 84.992 57.6641C85.087 59.0821 85.37 59.7441 85.37 59.7441C85.37 59.7441 88.679 54.6381 89.908 51.2351C91.137 47.8311 91.893 42.8201 92.177 35.6351C92.461 28.4491 92.744 26.2751 92.271 24.0061C91.798 21.7371 89.056 13.1331 84.707 10.9581C80.358 8.78312 73.947 5.64012 69.863 5.09612C62.891 4.16712 43.957 6.32513 40.364 9.25613C36.771 12.1871 36.204 11.9981 34.597 18.4271C32.99 24.8561 33.368 37.1481 34.313 42.5371C35.256 47.9271 36.296 53.0321 39.227 57.6651Z" fill="#34495E"/>
<path d="M44.2379 21.9812C44.1419 21.9812 44.0509 21.9242 44.0119 21.8292C43.9299 21.6312 42.0059 16.9172 42.2919 13.8662C42.3039 13.7322 42.4179 13.6302 42.5579 13.6462C42.6919 13.6582 42.7909 13.7782 42.7779 13.9122C42.5029 16.8442 44.4429 21.5962 44.4629 21.6442C44.5139 21.7682 44.4549 21.9112 44.3299 21.9632C44.3009 21.9752 44.2689 21.9812 44.2379 21.9812Z" fill="#1A2E40"/>
<path d="M39.4159 29.4501C39.3519 29.4501 39.2879 29.4251 39.2399 29.3751C37.1579 27.1991 35.7139 24.3331 35.6999 24.3041C35.6399 24.1841 35.6889 24.037 35.8089 23.977C35.9299 23.919 36.0769 23.9651 36.1369 24.0871C36.1509 24.1151 37.5639 26.9171 39.5929 29.0381C39.6859 29.1351 39.6829 29.2901 39.5849 29.3831C39.5379 29.4271 39.4769 29.4501 39.4159 29.4501Z" fill="#1A2E40"/>
<path d="M66.741 19.7122C66.715 19.7122 66.689 19.7082 66.664 19.7002C66.536 19.6572 66.467 19.5192 66.509 19.3912C66.527 19.3382 68.299 13.9862 68.577 10.1852C68.587 10.0512 68.715 9.93318 68.838 9.96018C68.973 9.97018 69.074 10.0872 69.064 10.2212C68.781 14.0832 66.99 19.4912 66.972 19.5452C66.938 19.6472 66.843 19.7122 66.741 19.7122Z" fill="#1A2E40"/>
<path d="M70.901 17.8211C70.87 17.8211 70.838 17.8151 70.808 17.8021C70.683 17.7501 70.624 17.6071 70.676 17.4831C70.689 17.4491 72.091 14.0741 72.553 11.7611C72.579 11.6281 72.699 11.5441 72.84 11.5691C72.973 11.5961 73.059 11.7241 73.032 11.8561C72.561 14.2171 71.185 17.5301 71.127 17.6701C71.087 17.7651 70.996 17.8211 70.901 17.8211Z" fill="#1A2E40"/>
<path d="M86.407 27.0872C86.333 27.0872 86.26 27.0541 86.211 26.9901C86.13 26.8821 86.152 26.7282 86.26 26.6482C86.279 26.6352 88.13 25.2322 89.319 23.3112C89.391 23.1962 89.542 23.1611 89.656 23.2321C89.771 23.3041 89.806 23.4541 89.735 23.5691C88.496 25.5711 86.632 26.9812 86.554 27.0402C86.51 27.0712 86.458 27.0872 86.407 27.0872Z" fill="#1A2E40"/>
<path d="M71.594 62.7941C71.486 62.7941 71.388 62.7221 71.358 62.6141C70.803 60.5811 68.311 55.5241 68.286 55.4731C68.226 55.3531 68.276 55.2061 68.397 55.1461C68.519 55.0881 68.665 55.1361 68.724 55.2581C68.827 55.4671 71.262 60.4081 71.83 62.4871C71.865 62.6171 71.789 62.7511 71.658 62.7871C71.637 62.7921 71.615 62.7941 71.594 62.7941Z" fill="#E59066"/>
<path d="M51.676 63.6141C51.654 63.6141 51.63 63.6111 51.607 63.6041C51.478 63.5661 51.403 63.4301 51.442 63.3011C52.2 60.7121 55.855 55.0921 56.01 54.8531C56.084 54.7411 56.236 54.7071 56.348 54.7821C56.461 54.8551 56.493 55.0061 56.419 55.1201C56.381 55.1771 52.648 60.9171 51.91 63.4381C51.879 63.5451 51.782 63.6141 51.676 63.6141Z" fill="#E59066"/>
<path d="M72.161 35.3752C72.15 35.3752 72.137 35.3742 72.125 35.3722C69.22 34.9412 52.794 35.3702 52.628 35.3752C52.626 35.3752 52.623 35.3752 52.621 35.3752C52.489 35.3752 52.381 35.2702 52.377 35.1372C52.374 35.0012 52.48 34.8902 52.615 34.8862C53.293 34.8692 69.249 34.4522 72.197 34.8892C72.331 34.9092 72.422 35.0332 72.402 35.1672C72.384 35.2892 72.28 35.3752 72.161 35.3752Z" fill="#E59066"/>
<path d="M68.2539 32.4762C68.2459 32.4762 68.2379 32.4762 68.2299 32.4752C65.0659 32.1642 56.8069 32.3482 56.7249 32.3502C56.5899 32.3642 56.4779 32.2462 56.4749 32.1112C56.4719 31.9762 56.5789 31.8642 56.7129 31.8612C56.7969 31.8602 65.0849 31.6762 68.2779 31.9882C68.4119 32.0012 68.5099 32.1212 68.4969 32.2552C68.4839 32.3812 68.3779 32.4762 68.2539 32.4762Z" fill="#E59066"/>
</g>
</svg>
